<svg width="0" height="0" class="hidden">
  <symbol xmlns="http://www.w3.org/2000/svg" fill="currentColor" viewBox="0 0 16 16" id="chevron-left">
    <path fill-rule="evenodd" d="M11.354 1.646a.5.5 0 010 .708L5.707 8l5.647 5.646a.5.5 0 01-.708.708l-6-6a.5.5 0 010-.708l6-6a.5.5 0 01.708 0z"></path>
  </symbol>
  <symbol xmlns="http://www.w3.org/2000/svg" fill="currentColor" viewBox="0 0 16 16" id="cart">
    <path d="M0 1.5A.5.5 0 01.5 1H2a.5.5 0 01.485.379L2.89 3H14.5a.5.5 0 01.491.592l-1.5 8A.5.5 0 0113 12H4a.5.5 0 01-.491-.408L2.01 3.607 1.61 2H.5a.5.5 0 01-.5-.5zM3.102 4l1.313 7h8.17l1.313-7H3.102zM5 12a2 2 0 100 4 2 2 0 000-4zm7 0a2 2 0 100 4 2 2 0 000-4zm-7 1a1 1 0 110 2 1 1 0 010-2zm7 0a1 1 0 110 2 1 1 0 010-2z"></path>
  </symbol>
  <symbol xmlns="http://www.w3.org/2000/svg" fill="currentColor" viewBox="0 0 16 16" id="check2-circle">
    <path d="M2.5 8a5.5 5.5 0 018.25-4.764.5.5 0 00.5-.866A6.5 6.5 0 1014.5 8a.5.5 0 00-1 0 5.5 5.5 0 11-11 0z"></path>
    <path d="M15.354 3.354a.5.5 0 00-.708-.708L8 9.293 5.354 6.646a.5.5 0 10-.708.708l3 3a.5.5 0 00.708 0l7-7z"></path>
  </symbol>
  <symbol xmlns="http://www.w3.org/2000/svg" fill="currentColor" viewBox="0 0 16 16" id="chevron-right">
    <path fill-rule="evenodd" d="M4.646 1.646a.5.5 0 01.708 0l6 6a.5.5 0 010 .708l-6 6a.5.5 0 01-.708-.708L10.293 8 4.646 2.354a.5.5 0 010-.708z"></path>
  </symbol>
  <symbol xmlns="http://www.w3.org/2000/svg" fill="currentColor" viewBox="0 0 16 16" id="envelope-open">
    <path d="M8.47 1.318a1 1 0 00-.94 0l-6 3.2A1 1 0 001 5.4v.818l5.724 3.465L8 8.917l1.276.766L15 6.218V5.4a1 1 0 00-.53-.882l-6-3.2zM15 7.388l-4.754 2.877L15 13.117v-5.73zm-.035 6.874L8 10.083l-6.965 4.18A1 1 0 002 15h12a1 1 0 00.965-.738zM1 13.117l4.754-2.852L1 7.387v5.73zM7.059.435a2 2 0 011.882 0l6 3.2A2 2 0 0116 5.4V14a2 2 0 01-2 2H2a2 2 0 01-2-2V5.4a2 2 0 011.059-1.765l6-3.2z"></path>
  </symbol>
  <symbol xmlns="http://www.w3.org/2000/svg" fill="currentColor" viewBox="0 0 16 16" id="bag">
    <path d="M8 1a2.5 2.5 0 012.5 2.5V4h-5v-.5A2.5 2.5 0 018 1zm3.5 3v-.5a3.5 3.5 0 10-7 0V4H1v10a2 2 0 002 2h10a2 2 0 002-2V4h-3.5zM2 5h12v9a1 1 0 01-1 1H3a1 1 0 01-1-1V5z"></path>
  </symbol>
  <symbol xmlns="http://www.w3.org/2000/svg" fill="currentColor" viewBox="0 0 16 16" id="calendar-plus">
    <path d="M8 7a.5.5 0 01.5.5V9H10a.5.5 0 010 1H8.5v1.5a.5.5 0 01-1 0V10H6a.5.5 0 010-1h1.5V7.5A.5.5 0 018 7z"></path>
    <path d="M3.5 0a.5.5 0 01.5.5V1h8V.5a.5.5 0 011 0V1h1a2 2 0 012 2v11a2 2 0 01-2 2H2a2 2 0 01-2-2V3a2 2 0 012-2h1V.5a.5.5 0 01.5-.5zM1 4v10a1 1 0 001 1h12a1 1 0 001-1V4H1z"></path>
  </symbol>
  <symbol xmlns="http://www.w3.org/2000/svg" fill="currentColor" viewBox="0 0 16 16" id="calendar3">
    <path d="M14 0H2a2 2 0 00-2 2v12a2 2 0 002 2h12a2 2 0 002-2V2a2 2 0 00-2-2zM1 3.857C1 3.384 1.448 3 2 3h12c.552 0 1 .384 1 .857v10.286c0 .473-.448.857-1 .857H2c-.552 0-1-.384-1-.857V3.857z"></path>
    <path d="M6.5 7a1 1 0 100-2 1 1 0 000 2zm3 0a1 1 0 100-2 1 1 0 000 2zm3 0a1 1 0 100-2 1 1 0 000 2zm-9 3a1 1 0 100-2 1 1 0 000 2zm3 0a1 1 0 100-2 1 1 0 000 2zm3 0a1 1 0 100-2 1 1 0 000 2zm3 0a1 1 0 100-2 1 1 0 000 2zm-9 3a1 1 0 100-2 1 1 0 000 2zm3 0a1 1 0 100-2 1 1 0 000 2zm3 0a1 1 0 100-2 1 1 0 000 2z"></path>
  </symbol>
  <symbol xmlns="http://www.w3.org/2000/svg" fill="currentColor" viewBox="0 0 16 16" id="box-arrow-right">
    <path fill-rule="evenodd" d="M10 12.5a.5.5 0 01-.5.5h-8a.5.5 0 01-.5-.5v-9a.5.5 0 01.5-.5h8a.5.5 0 01.5.5v2a.5.5 0 001 0v-2A1.5 1.5 0 009.5 2h-8A1.5 1.5 0 000 3.5v9A1.5 1.5 0 001.5 14h8a1.5 1.5 0 001.5-1.5v-2a.5.5 0 00-1 0v2z"></path>
    <path fill-rule="evenodd" d="M15.854 8.354a.5.5 0 000-.708l-3-3a.5.5 0 00-.708.708L14.293 7.5H5.5a.5.5 0 000 1h8.793l-2.147 2.146a.5.5 0 00.708.708l3-3z"></path>
  </symbol>
  <symbol xmlns="http://www.w3.org/2000/svg" fill="currentColor" viewBox="0 0 16 16" id="bag-check">
    <path fill-rule="evenodd" d="M10.854 8.146a.5.5 0 010 .708l-3 3a.5.5 0 01-.708 0l-1.5-1.5a.5.5 0 01.708-.708L7.5 10.793l2.646-2.647a.5.5 0 01.708 0z"></path>
    <path d="M8 1a2.5 2.5 0 012.5 2.5V4h-5v-.5A2.5 2.5 0 018 1zm3.5 3v-.5a3.5 3.5 0 10-7 0V4H1v10a2 2 0 002 2h10a2 2 0 002-2V4h-3.5zM2 5h12v9a1 1 0 01-1 1H3a1 1 0 01-1-1V5z"></path>
  </symbol>
  <symbol xmlns="http://www.w3.org/2000/svg" fill="currentColor" viewBox="0 0 16 16" id="calendar">
    <path d="M3.5 0a.5.5 0 01.5.5V1h8V.5a.5.5 0 011 0V1h1a2 2 0 012 2v11a2 2 0 01-2 2H2a2 2 0 01-2-2V3a2 2 0 012-2h1V.5a.5.5 0 01.5-.5zM1 4v10a1 1 0 001 1h12a1 1 0 001-1V4H1z"></path>
  </symbol>
  <symbol xmlns="http://www.w3.org/2000/svg" fill="currentColor" viewBox="0 0 16 16" id="exclamation-circle">
    <path d="M8 15A7 7 0 118 1a7 7 0 010 14zm0 1A8 8 0 108 0a8 8 0 000 16z"></path>
    <path d="M7.002 11a1 1 0 112 0 1 1 0 01-2 0zM7.1 4.995a.905.905 0 111.8 0l-.35 3.507a.552.552 0 01-1.1 0L7.1 4.995z"></path>
  </symbol>
  <symbol xmlns="http://www.w3.org/2000/svg" fill="currentColor" viewBox="0 0 16 16" id="envelope">
    <path d="M0 4a2 2 0 012-2h12a2 2 0 012 2v8a2 2 0 01-2 2H2a2 2 0 01-2-2V4zm2-1a1 1 0 00-1 1v.217l7 4.2 7-4.2V4a1 1 0 00-1-1H2zm13 2.383l-4.758 2.855L15 11.114v-5.73zm-.034 6.878L9.271 8.82 8 9.583 6.728 8.82l-5.694 3.44A1 1 0 002 13h12a1 1 0 00.966-.739zM1 11.114l4.758-2.876L1 5.383v5.73z"></path>
  </symbol>
  <symbol xmlns="http://www.w3.org/2000/svg" fill="currentColor" viewBox="0 0 16 16" id="eye-slash">
    <path d="M13.359 11.238C15.06 9.72 16 8 16 8s-3-5.5-8-5.5a7.028 7.028 0 00-2.79.588l.77.771A5.944 5.944 0 018 3.5c2.12 0 3.879 1.168 5.168 2.457A13.134 13.134 0 0114.828 8c-.058.087-.122.183-.195.288-.335.48-.83 1.12-1.465 1.755-.165.165-.337.328-.517.486l.708.709z"></path>
    <path d="M11.297 9.176a3.5 3.5 0 00-4.474-4.474l.823.823a2.5 2.5 0 012.829 2.829l.822.822zm-2.943 1.299l.822.822a3.5 3.5 0 01-4.474-4.474l.823.823a2.5 2.5 0 002.829 2.829z"></path>
    <path d="M3.35 5.47c-.18.16-.353.322-.518.487A13.134 13.134 0 001.172 8l.195.288c.335.48.83 1.12 1.465 1.755C4.121 11.332 5.881 12.5 8 12.5c.716 0 1.39-.133 2.02-.36l.77.772A7.029 7.029 0 018 13.5C3 13.5 0 8 0 8s.939-1.721 2.641-3.238l.708.709zm10.296 8.884l-12-12 .708-.708 12 12-.708.708z"></path>
  </symbol>
  <symbol xmlns="http://www.w3.org/2000/svg" fill="currentColor" viewBox="0 0 16 16" id="eye">
    <path d="M16 8s-3-5.5-8-5.5S0 8 0 8s3 5.5 8 5.5S16 8 16 8zM1.173 8a13.133 13.133 0 011.66-2.043C4.12 4.668 5.88 3.5 8 3.5c2.12 0 3.879 1.168 5.168 2.457A13.133 13.133 0 0114.828 8c-.058.087-.122.183-.195.288-.335.48-.83 1.12-1.465 1.755C11.879 11.332 10.119 12.5 8 12.5c-2.12 0-3.879-1.168-5.168-2.457A13.134 13.134 0 011.172 8z"></path>
    <path d="M8 5.5a2.5 2.5 0 100 5 2.5 2.5 0 000-5zM4.5 8a3.5 3.5 0 117 0 3.5 3.5 0 01-7 0z"></path>
  </symbol>
  <symbol xmlns="http://www.w3.org/2000/svg" fill="currentColor" viewBox="0 0 16 16" id="info-circle">
    <path d="M8 15A7 7 0 118 1a7 7 0 010 14zm0 1A8 8 0 108 0a8 8 0 000 16z"></path>
    <path d="M8.93 6.588l-2.29.287-.082.38.45.083c.294.07.352.176.288.469l-.738 3.468c-.194.897.105 1.319.808 1.319.545 0 1.178-.252 1.465-.598l.088-.416c-.2.176-.492.246-.686.246-.275 0-.375-.193-.304-.533L8.93 6.588zM9 4.5a1 1 0 11-2 0 1 1 0 012 0z"></path>
  </symbol>
  <symbol xmlns="http://www.w3.org/2000/svg" fill="currentColor" viewBox="0 0 16 16" id="person-circle">
    <path d="M11 6a3 3 0 11-6 0 3 3 0 016 0z"></path>
    <path fill-rule="evenodd" d="M0 8a8 8 0 1116 0A8 8 0 010 8zm8-7a7 7 0 00-5.468 11.37C3.242 11.226 4.805 10 8 10s4.757 1.225 5.468 2.37A7 7 0 008 1z"></path>
  </symbol>
  <symbol xmlns="http://www.w3.org/2000/svg" fill="currentColor" viewBox="0 0 16 16" id="person">
    <path d="M8 8a3 3 0 100-6 3 3 0 000 6zm2-3a2 2 0 11-4 0 2 2 0 014 0zm4 8c0 1-1 1-1 1H3s-1 0-1-1 1-4 6-4 6 3 6 4zm-1-.004c-.001-.246-.154-.986-.832-1.664C11.516 10.68 10.289 10 8 10c-2.29 0-3.516.68-4.168 1.332-.678.678-.83 1.418-.832 1.664h10z"></path>
  </symbol>
  <symbol xmlns="http://www.w3.org/2000/svg" fill="currentColor" viewBox="0 0 16 16" id="person-check">
    <path d="M6 8a3 3 0 100-6 3 3 0 000 6zm2-3a2 2 0 11-4 0 2 2 0 014 0zm4 8c0 1-1 1-1 1H1s-1 0-1-1 1-4 6-4 6 3 6 4zm-1-.004c-.001-.246-.154-.986-.832-1.664C9.516 10.68 8.289 10 6 10c-2.29 0-3.516.68-4.168 1.332-.678.678-.83 1.418-.832 1.664h10z"></path>
    <path fill-rule="evenodd" d="M15.854 5.146a.5.5 0 010 .708l-3 3a.5.5 0 01-.708 0l-1.5-1.5a.5.5 0 01.708-.708L12.5 7.793l2.646-2.647a.5.5 0 01.708 0z"></path>
  </symbol>
  <symbol xmlns="http://www.w3.org/2000/svg" fill="currentColor" viewBox="0 0 16 16" id="facebook">
    <path d="M16 8.049c0-4.446-3.582-8.05-8-8.05C3.58 0-.002 3.603-.002 8.05c0 4.017 2.926 7.347 6.75 7.951v-5.625h-2.03V8.05H6.75V6.275c0-2.017 1.195-3.131 3.022-3.131.876 0 1.791.157 1.791.157v1.98h-1.009c-.993 0-1.303.621-1.303 1.258v1.51h2.218l-.354 2.326H9.25V16c3.824-.604 6.75-3.934 6.75-7.951z"></path>
  </symbol>
  <symbol xmlns="http://www.w3.org/2000/svg" fill="currentColor" viewBox="0 0 16 16" id="instagram">
    <path d="M8 0C5.829 0 5.556.01 4.703.048 3.85.088 3.269.222 2.76.42a3.917 3.917 0 00-1.417.923A3.927 3.927 0 00.42 2.76C.222 3.268.087 3.85.048 4.7.01 5.555 0 5.827 0 8.001c0 2.172.01 2.444.048 3.297.04.852.174 1.433.372 1.942.205.526.478.972.923 1.417.444.445.89.719 1.416.923.51.198 1.09.333 1.942.372C5.555 15.99 5.827 16 8 16s2.444-.01 3.298-.048c.851-.04 1.434-.174 1.943-.372a3.916 3.916 0 001.416-.923c.445-.445.718-.891.923-1.417.197-.509.332-1.09.372-1.942C15.99 10.445 16 10.173 16 8s-.01-2.445-.048-3.299c-.04-.851-.175-1.433-.372-1.941a3.926 3.926 0 00-.923-1.417A3.911 3.911 0 0013.24.42c-.51-.198-1.092-.333-1.943-.372C10.443.01 10.172 0 7.998 0h.003zm-.717 1.442h.718c2.136 0 2.389.007 3.232.046.78.035 1.204.166 1.486.275.373.145.64.319.92.599.28.28.453.546.598.92.11.281.24.705.275 1.485.039.843.047 1.096.047 3.231s-.008 2.389-.047 3.232c-.035.78-.166 1.203-.275 1.485a2.47 2.47 0 01-.599.919c-.28.28-.546.453-.92.598-.28.11-.704.24-1.485.276-.843.038-1.096.047-3.232.047s-2.39-.009-3.233-.047c-.78-.036-1.203-.166-1.485-.276a2.478 2.478 0 01-.92-.598 2.48 2.48 0 01-.6-.92c-.109-.281-.24-.705-.275-1.485-.038-.843-.046-1.096-.046-3.233 0-2.136.008-2.388.046-3.231.036-.78.166-1.204.276-1.486.145-.373.319-.64.599-.92.28-.28.546-.453.92-.598.282-.11.705-.24 1.485-.276.738-.034 1.024-.044 2.515-.045v.002zm4.988 1.328a.96.96 0 100 1.92.96.96 0 000-1.92zm-4.27 1.122a4.109 4.109 0 100 8.217 4.109 4.109 0 000-8.217zm0 1.441a2.667 2.667 0 110 5.334 2.667 2.667 0 010-5.334z"></path>
  </symbol>
  <symbol xmlns="http://www.w3.org/2000/svg" fill="currentColor" viewBox="0 0 16 16" id="list">
    <path fill-rule="evenodd" d="M2.5 12a.5.5 0 01.5-.5h10a.5.5 0 010 1H3a.5.5 0 01-.5-.5zm0-4a.5.5 0 01.5-.5h10a.5.5 0 010 1H3a.5.5 0 01-.5-.5zm0-4a.5.5 0 01.5-.5h10a.5.5 0 010 1H3a.5.5 0 01-.5-.5z"></path>
  </symbol>
  <symbol xmlns="http://www.w3.org/2000/svg" fill="currentColor" viewBox="0 0 16 16" id="person-lines-fill">
    <path d="M6 8a3 3 0 100-6 3 3 0 000 6zm-5 6s-1 0-1-1 1-4 6-4 6 3 6 4-1 1-1 1H1zM11 3.5a.5.5 0 01.5-.5h4a.5.5 0 010 1h-4a.5.5 0 01-.5-.5zm.5 2.5a.5.5 0 000 1h4a.5.5 0 000-1h-4zm2 3a.5.5 0 000 1h2a.5.5 0 000-1h-2zm0 3a.5.5 0 000 1h2a.5.5 0 000-1h-2z"></path>
  </symbol>
  <symbol xmlns="http://www.w3.org/2000/svg" fill="currentColor" viewBox="0 0 16 16" id="question-circle-fill">
    <path d="M16 8A8 8 0 110 8a8 8 0 0116 0zM5.496 6.033h.825c.138 0 .248-.113.266-.25.09-.656.54-1.134 1.342-1.134.686 0 1.314.343 1.314 1.168 0 .635-.374.927-.965 1.371-.673.489-1.206 1.06-1.168 1.987l.003.217a.25.25 0 00.25.246h.811a.25.25 0 00.25-.25v-.105c0-.718.273-.927 1.01-1.486.609-.463 1.244-.977 1.244-2.056 0-1.511-1.276-2.241-2.673-2.241-1.267 0-2.655.59-2.75 2.286a.237.237 0 00.241.247zm2.325 6.443c.61 0 1.029-.394 1.029-.927 0-.552-.42-.94-1.029-.94-.584 0-1.009.388-1.009.94 0 .533.425.927 1.01.927z"></path>
  </symbol>
  <symbol xmlns="http://www.w3.org/2000/svg" fill="currentColor" viewBox="0 0 16 16" id="search">
    <path d="M11.742 10.344a6.5 6.5 0 10-1.397 1.398h-.001c.03.04.062.078.098.115l3.85 3.85a1 1 0 001.415-1.414l-3.85-3.85a1.007 1.007 0 00-.115-.1zM12 6.5a5.5 5.5 0 11-11 0 5.5 5.5 0 0111 0z"></path>
  </symbol>
  <symbol xmlns="http://www.w3.org/2000/svg" fill="currentColor" viewBox="0 0 16 16" id="tags">
    <path d="M3 2v4.586l7 7L14.586 9l-7-7H3zM2 2a1 1 0 011-1h4.586a1 1 0 01.707.293l7 7a1 1 0 010 1.414l-4.586 4.586a1 1 0 01-1.414 0l-7-7A1 1 0 012 6.586V2z"></path>
    <path d="M5.5 5a.5.5 0 110-1 .5.5 0 010 1zm0 1a1.5 1.5 0 100-3 1.5 1.5 0 000 3zM1 7.086a1 1 0 00.293.707L8.75 15.25l-.043.043a1 1 0 01-1.414 0l-7-7A1 1 0 010 7.586V3a1 1 0 011-1v5.086z"></path>
  </symbol>
  <symbol xmlns="http://www.w3.org/2000/svg" fill="currentColor" viewBox="0 0 16 16" id="telephone">
    <path d="M3.654 1.328a.678.678 0 00-1.015-.063L1.605 2.3c-.483.484-.661 1.169-.45 1.77a17.568 17.568 0 004.168 6.608 17.569 17.569 0 006.608 4.168c.601.211 1.286.033 1.77-.45l1.034-1.034a.678.678 0 00-.063-1.015l-2.307-1.794a.678.678 0 00-.58-.122l-2.19.547a1.745 1.745 0 01-1.657-.459L5.482 8.062a1.745 1.745 0 01-.46-1.657l.548-2.19a.678.678 0 00-.122-.58L3.654 1.328zM1.884.511a1.745 1.745 0 012.612.163L6.29 2.98c.329.423.445.974.315 1.494l-.547 2.19a.678.678 0 00.178.643l2.457 2.457a.678.678 0 00.644.178l2.189-.547a1.745 1.745 0 011.494.315l2.306 1.794c.829.645.905 1.87.163 2.611l-1.034 1.034c-.74.74-1.846 1.065-2.877.702a18.634 18.634 0 01-7.01-4.42 18.634 18.634 0 01-4.42-7.009c-.362-1.03-.037-2.137.703-2.877L1.885.511z"></path>
  </symbol>
  <symbol xmlns="http://www.w3.org/2000/svg" fill="currentColor" viewBox="0 0 16 16" id="question-circle">
    <path d="M8 15A7 7 0 118 1a7 7 0 010 14zm0 1A8 8 0 108 0a8 8 0 000 16z"></path>
    <path d="M5.255 5.786a.237.237 0 00.241.247h.825c.138 0 .248-.113.266-.25.09-.656.54-1.134 1.342-1.134.686 0 1.314.343 1.314 1.168 0 .635-.374.927-.965 1.371-.673.489-1.206 1.06-1.168 1.987l.003.217a.25.25 0 00.25.246h.811a.25.25 0 00.25-.25v-.105c0-.718.273-.927 1.01-1.486.609-.463 1.244-.977 1.244-2.056 0-1.511-1.276-2.241-2.673-2.241-1.267 0-2.655.59-2.75 2.286zm1.557 5.763c0 .533.425.927 1.01.927.609 0 1.028-.394 1.028-.927 0-.552-.42-.94-1.029-.94-.584 0-1.009.388-1.009.94z"></path>
  </symbol>
  <symbol xmlns="http://www.w3.org/2000/svg" fill="currentColor" viewBox="0 0 16 16" id="trophy-fill">
    <path d="M2.5.5A.5.5 0 013 0h10a.5.5 0 01.5.5c0 .538-.012 1.05-.034 1.536a3 3 0 11-1.133 5.89c-.79 1.865-1.878 2.777-2.833 3.011v2.173l1.425.356c.194.048.377.135.537.255L13.3 15.1a.5.5 0 01-.3.9H3a.5.5 0 01-.3-.9l1.838-1.379c.16-.12.343-.207.537-.255L6.5 13.11v-2.173c-.955-.234-2.043-1.146-2.833-3.012a3 3 0 11-1.132-5.89A33.076 33.076 0 012.5.5zm.099 2.54a2 2 0 00.72 3.935c-.333-1.05-.588-2.346-.72-3.935zm10.083 3.935a2 2 0 00.72-3.935c-.133 1.59-.388 2.885-.72 3.935z"></path>
  </symbol>
  <symbol xmlns="http://www.w3.org/2000/svg" fill="currentColor" viewBox="0 0 16 16" id="trash">
    <path d="M5.5 5.5A.5.5 0 016 6v6a.5.5 0 01-1 0V6a.5.5 0 01.5-.5zm2.5 0a.5.5 0 01.5.5v6a.5.5 0 01-1 0V6a.5.5 0 01.5-.5zm3 .5a.5.5 0 00-1 0v6a.5.5 0 001 0V6z"></path>
    <path fill-rule="evenodd" d="M14.5 3a1 1 0 01-1 1H13v9a2 2 0 01-2 2H5a2 2 0 01-2-2V4h-.5a1 1 0 01-1-1V2a1 1 0 011-1H6a1 1 0 011-1h2a1 1 0 011 1h3.5a1 1 0 011 1v1zM4.118 4L4 4.059V13a1 1 0 001 1h6a1 1 0 001-1V4.059L11.882 4H4.118zM2.5 3V2h11v1h-11z"></path>
  </symbol>
  <symbol xmlns="http://www.w3.org/2000/svg" fill="currentColor" viewBox="0 0 16 16" id="truck">
    <path d="M0 3.5A1.5 1.5 0 011.5 2h9A1.5 1.5 0 0112 3.5V5h1.02a1.5 1.5 0 011.17.563l1.481 1.85a1.5 1.5 0 01.329.938V10.5a1.5 1.5 0 01-1.5 1.5H14a2 2 0 11-4 0H5a2 2 0 11-3.998-.085A1.5 1.5 0 010 10.5v-7zm1.294 7.456A1.999 1.999 0 014.732 11h5.536a2.01 2.01 0 01.732-.732V3.5a.5.5 0 00-.5-.5h-9a.5.5 0 00-.5.5v7a.5.5 0 00.294.456zM12 10a2 2 0 011.732 1h.768a.5.5 0 00.5-.5V8.35a.5.5 0 00-.11-.312l-1.48-1.85A.5.5 0 0013.02 6H12v4zm-9 1a1 1 0 100 2 1 1 0 000-2zm9 0a1 1 0 100 2 1 1 0 000-2z"></path>
  </symbol>
  <symbol xmlns="http://www.w3.org/2000/svg" fill="currentColor" viewBox="0 0 16 16" id="x-lg">
    <path d="M1.293 1.293a1 1 0 011.414 0L8 6.586l5.293-5.293a1 1 0 111.414 1.414L9.414 8l5.293 5.293a1 1 0 01-1.414 1.414L8 9.414l-5.293 5.293a1 1 0 01-1.414-1.414L6.586 8 1.293 2.707a1 1 0 010-1.414z"></path>
  </symbol>
  <symbol xmlns="http://www.w3.org/2000/svg" fill="currentColor" viewBox="0 0 16 16" id="x">
    <path d="M4.646 4.646a.5.5 0 01.708 0L8 7.293l2.646-2.647a.5.5 0 01.708.708L8.707 8l2.647 2.646a.5.5 0 01-.708.708L8 8.707l-2.646 2.647a.5.5 0 01-.708-.708L7.293 8 4.646 5.354a.5.5 0 010-.708z"></path>
  </symbol>
</svg>