<svg id="Outline_Black" data-name="Outline Black" xmlns="http://www.w3.org/2000/svg" viewBox="0 0 366 113.39"><defs><style>.cls-1,.cls-2{stroke:#000;stroke-miterlimit:10;}.cls-1{stroke-width:2px;}.cls-2{stroke-width:0.5px;}</style></defs><title>rafina-budapest-logo</title><path class="cls-1" d="M61.82,69.61a10.66,10.66,0,0,1-4.31.89,14,14,0,0,1-3.44-.45c-5.43-1.47-8.07-4.58-9.35-7.31a12.38,12.38,0,0,1-1.12-5l.08-3.1c0-6.8-2.56-12.34-10-15.51H25.14V69.54H27.3v.81H12.11v-.81h2.32V8.75H12.11V8H35.69C44.4,8.61,54,13.85,54,23.53c0,7.23-5.83,13.36-13.91,15.14,8.08,1.77,14,8.34,14,15.65l.08,7.31c0,1.33,1.28,7.54,5.84,7.54a2.76,2.76,0,0,0,1.35-.3ZM25.14,8.75V38.37H35.29c11.59-4.51,11.35-24.08.56-29.62Z"/><path class="cls-1" d="M132.32,69.9v.82H115.77V69.9h1.92L111.13,51H90L82.36,70h1.92v.74H79.56V70h1.92L106.1,7.65,130.24,69.9ZM111,50.26l-9.76-27.69-11,27.69Z"/><path class="cls-1" d="M188.26,8.39v2.29h-.72V9.2H163.48V39.63h19.83v-1H184v3h-.72V40.44H163.48V69.9h2.08v.82h-15V69.9h2.31V9.2h-2.31V8.39Z"/><path class="cls-1" d="M219.59,70h2.32v.74H206.48V70h2.32V8.53h-2.32V7.79h15.43v.74h-2.32Z"/><path class="cls-1" d="M289.2,8.09v.59h-2.07v62h-.88L243.17,10.23V70.05h2.07v.59h-5.11v-.59h2.16l-.24-61.22h-1.92V8.09h16v.74h-2L286.25,52V8.68h-2.08V8.09Z"/><path class="cls-1" d="M358.58,69.9v.82H342V69.9H344L337.4,51H316.21l-7.59,19h1.92v.74h-4.72V70h1.92L332.36,7.65,356.5,69.9ZM337.24,50.26l-9.76-27.69-11,27.69Z"/><path class="cls-2" d="M105.73,101c-.32.09-.59.43-1.19.26l-1.2.37-.88.29-.87.32a5.16,5.16,0,0,0-.92.23c-.14,0-.28.2-.51.23l-.55.17-.69.23c-.83.23-1.8.43-2.67.58a1.33,1.33,0,0,0-.74.2,2.24,2.24,0,0,1-.83.2,1.46,1.46,0,0,0-.36,0,3,3,0,0,1-.83.23c-.37,0-.69.09-1,.11-.59.15-1.28.29-2.07.44s-2,.31-3,.43c-.23,0-.51.08-.83.08a2.33,2.33,0,0,0-.73.12h-.28a1,1,0,0,0-.6-.12,1.88,1.88,0,0,1-1.33-.51.85.85,0,0,1-.23-1c0-.17,0-.37.23-.43a2.83,2.83,0,0,1,.78-.49,1.87,1.87,0,0,1,.78-.32l1.47-.6c.19-.09.23-.06.28,0s.09.08.23.08c1.29-.63,2.85-1.12,4.24-1.69.5-.23,1.19-.41,1.7-.67.69-.31,1.52-.49,2.21-.77a.91.91,0,0,1,.55-.18,1.58,1.58,0,0,0,.69-.2c.46-.23,1.06-.34,1.57-.54.32-.15.78-.21,1.06-.38.13-.14.41-.08.59-.08,0,.14-.18.23-.41.25-.55.21-1.24.38-1.75.61s-1,.34-1.47.52-.65.26-1,.34c-.51.15-1,.35-1.57.55s-.87.34-1.34.55a15.65,15.65,0,0,0-1.74.66c-.19.11-.51.2-.51.4a.87.87,0,0,0,.41-.06c.14-.23.69-.17,1-.37s.82-.32,1.29-.49a2.47,2.47,0,0,1,.73-.12c.37,0,.42-.25.74-.37a6.55,6.55,0,0,0,1-.32,4.42,4.42,0,0,0,1-.4c.46,0,.6-.26.92-.34a2,2,0,0,1,.69-.21A5,5,0,0,0,99,98.47c1-.38,1.89-.58,2.76-.89.33-.09.37,0,.65,0l-.19.14a3.13,3.13,0,0,1-1.24.37,1.93,1.93,0,0,0-.83.26,5.54,5.54,0,0,1-1.93.61.77.77,0,0,0-.32.05c-.09.18-.28.18-.46.23a3.71,3.71,0,0,1-1.71.49,1,1,0,0,0-.23.12.36.36,0,0,1-.32.23l-1.38.55a3.57,3.57,0,0,0-1.2.54,16.76,16.76,0,0,0-2.07.81,20.45,20.45,0,0,0-2.48,1.12,13.35,13.35,0,0,0-1.57.75l-.51.34a2,2,0,0,0,.88.09c.18,0,.41-.11.73-.11.83-.09,1.66-.24,2.4-.35a12.16,12.16,0,0,1,1.93-.43l1.89-.43c1-.26,2.12-.52,3.22-.84a43.17,43.17,0,0,0,4.74-1.58,4.68,4.68,0,0,0,.6-.06c.19-.17.37.06.46,0s.14,0,.1-.09v-.14c.36,0,.55-.2.73-.29a11.91,11.91,0,0,0,2.4-1s0,0,.18-.05a16.3,16.3,0,0,0,3.31-1.67,23,23,0,0,0,2.17-1.41c.37-.35.92-.69,1.38-1.07l.23-.26c0-.08.18-.11,0-.17a.21.21,0,0,0-.19,0,9.52,9.52,0,0,1-1.47.29,17.09,17.09,0,0,1-2.4.55l-1.15.31c-.37.09-.92,0-1.19.26l-1,.2c-.28,0-.42.06-.46.12a1.5,1.5,0,0,1-.37.11,7.78,7.78,0,0,0-1.93.52,2.74,2.74,0,0,1-.65.06c0-.17.19-.2.33-.26l1-.26c1.34-.35,2.72-.72,4-1,.28-.08.55-.08.64-.23l-.27-.17s.18-.09.18-.09a.31.31,0,0,1,.14,0c.09,0,.09,0,0,.09a1.93,1.93,0,0,0-.05.2,3.89,3.89,0,0,0,1.11-.17c.6-.2,1.33-.26,2-.43a10.26,10.26,0,0,1,1.57-.26.67.67,0,0,0,.69-.38,1.11,1.11,0,0,1,.37-.63,2.78,2.78,0,0,0,.78-1.09c.09-.35.18-.61.23-.92a.5.5,0,0,0,0-.38c-.18-.31-.14-.75-.41-1a2.29,2.29,0,0,0-.79-.49c-.36,0-.55-.2-.87-.32a.49.49,0,0,0-.23-.11,2.39,2.39,0,0,1-1-.15h-.28a12.41,12.41,0,0,1-1.47,0c-.19,0-.42,0-.51.09-.46.31-1.15.52-1.66.86-.09,0-.18.09-.18.12a.68.68,0,0,1-.6.25c-.14,0-.23.15-.28.18s0,.23-.23.26l-.78.43a.62.62,0,0,0-.23.08c-.28,0-.37.12-.64.12s0,.17-.09.23c-.28.14-.6.09-.7.17s-.46.2-.64.26a1.28,1.28,0,0,1-.69.38,1.36,1.36,0,0,0-.74.31,2,2,0,0,1-.83.29c-.27.2-.69.2-1,.4s-.6.2-.88.41c0,0-.09,0-.23.11a2.79,2.79,0,0,0-1.15.26,4.62,4.62,0,0,1-1.2.37s-.18-.08-.18,0c-.18.26-.6.12-.87.23a11.47,11.47,0,0,0-1.25.32,3.66,3.66,0,0,1-1.24.2,4.32,4.32,0,0,1-1.15-.26c-.14,0-.37,0-.42.09l-.41.43-.41.52c-.1,0-.33.14-.33.2.19.32-.36.37-.46.6,0,.41-.46.64-.73.95,0,.12,0,.18-.19.21a1.67,1.67,0,0,0-.92.71c-.14.12-.41.24-.46.35s-.18.32-.32.46,0,.09,0,.09c-.5.23-.55.63-1,1a10.48,10.48,0,0,0-.92,1c0,.09-.19.09-.37.09l-.6-.17c-.18-.06-.18-.23-.28-.32s-.09-.17-.09-.26,0-.17-.23-.08-.28-.12-.28-.21a1.76,1.76,0,0,1,.46-.66L86,98.27l1.56-1.64,1.75-1.82,1.16-1.12A10.11,10.11,0,0,1,92.2,92l.27-.43.65-.57c.37-.32.69-.72,1.06-1.07a13.24,13.24,0,0,1,1.33-1.41c.37-.29.69-.66,1-1a14,14,0,0,1,1.61-1.75c.69-.64,1.19-1.21,1.88-1.82l.37-.4a3.57,3.57,0,0,1,1-1,6.88,6.88,0,0,1,1.19-1.23l.74-.78,1-.89c.13-.09.41-.09.36-.29h-.73a.46.46,0,0,1-.28.11c-.18.06-.5,0-.73.06a1.39,1.39,0,0,0-.33,0c-.14,0-.18.2-.5.14-.14,0-.37.06-.56.06a1,1,0,0,0-.87.32c-.14,0-.18.11-.37,0a2,2,0,0,0-.51-.09c-.09,0-.32,0-.32.06-.14.26-.83.23-1,.49s-.28.14-.37.08-.23-.08-.23.06-.46,0-.6.12a3.17,3.17,0,0,1-.69.34l-.69.15h-.05c-.32-.12-.41.08-.69.08-.23.32-.74.35-1.2.52a3.91,3.91,0,0,1-1.24.37c-.46.26-1.15.26-1.43.61l-.27.08a11.22,11.22,0,0,0-1.52.55,6.11,6.11,0,0,1-1.47.66c-.65.23-1,.64-1.57.78a1.59,1.59,0,0,1-.32.32,3.64,3.64,0,0,1-.46.34L85,86a1,1,0,0,1-.69,0c-.28-.12-.51-.23-.55-.55-.09-.55.37-1,.92-1.3a4.12,4.12,0,0,1,.83-.34,23.25,23.25,0,0,1,2.11-1.07l.47-.08v.17l.23-.17c.13,0,.46,0,.18-.2a3.28,3.28,0,0,1,.46-.26c.37-.18.74-.23,1.1-.43a1.63,1.63,0,0,1,.51-.06v.17a.58.58,0,0,0,.51-.17h-.51a1.5,1.5,0,0,1,1.06-.35v.09h.09c.19,0,.32,0,.37-.09s.23-.11.23-.14-.23,0-.23.06h-.37a.69.69,0,0,1,.6-.23v.17c.14-.06.42,0,.46-.17h-.46c.09-.15.18-.12.46-.12v.12h.32c.1,0,.33,0,.33-.12h-.65v0a17.13,17.13,0,0,1,2-.72c.55-.14,1.06-.34,1.61-.43a1.38,1.38,0,0,0,.37,0s0,.09-.05.09-.09.17.05.17H97c-.14.29-.64.29-1,.4a1.33,1.33,0,0,0-.51.09c-.23.2-.74.2-1.11.32-.18.11-.5.11-.64.26s0,.08,0,.08l.69-.17a25.24,25.24,0,0,0,2.57-.66c1.34-.35,2.67-.55,3.87-1a8.85,8.85,0,0,1,.88-.12A4.82,4.82,0,0,0,103,79a3,3,0,0,1,.51-.06l1.24-.2a11.08,11.08,0,0,1,2-.23s.09,0,.09-.14v-.06a.83.83,0,0,0-.32-.06.2.2,0,0,1-.18.09c-.7,0-1.15.23-1.8.2a.68.68,0,0,0-.37,0c-.14.06-.32.06-.37.12-.23.11-.41-.06-.5,0l-1,.2a5.37,5.37,0,0,0-1.38.26,4.29,4.29,0,0,0-1.38.32s-.09,0-.14,0a11.7,11.7,0,0,0-1.7.4,3.7,3.7,0,0,1-.6,0c0-.06.09-.14.23-.14l.19-.12h-.69a3.79,3.79,0,0,1,1.33-.4s.14,0,.14.09l-.14,0c-.09.06-.18.09-.18.12A1.72,1.72,0,0,0,99,79.36c.13,0,.23,0,.36,0s.28,0,.28-.09H99v-.11c.36-.15.82-.12,1.19-.29a1.41,1.41,0,0,1,.51,0V79a1.43,1.43,0,0,0,.55-.08l0-.06h0a3.7,3.7,0,0,0-.55,0s.09-.08.09-.08c1.2-.23,2.49-.47,3.68-.61.28-.06.28-.06.28.17a5.71,5.71,0,0,0,.69,0,.23.23,0,0,0,.09,0s-.13-.09-.18-.09h-.14l-.14,0c.1-.06.1-.08.1-.08a11.15,11.15,0,0,0,1.56-.18c.46,0,.92,0,1.47,0a2.23,2.23,0,0,1,1,.12c0,.06.18.06.32.06a10.15,10.15,0,0,1,1.84.11c.14,0,.28.09.46.11l.69.24a3.9,3.9,0,0,1,1.85,1,4.68,4.68,0,0,1,1.15,1.3,1.32,1.32,0,0,1,.41,1.27c-.28.14.19.34-.09.46a1,1,0,0,0-.09.48c0,.18-.1.32-.23.49.27.18,0,.26,0,.38a2.23,2.23,0,0,0-.64.8c-.46.29-.56.67-.88,1a1.86,1.86,0,0,1-.87.89,1.62,1.62,0,0,1-.42.35l-.64.37c-.14.06-.23.23-.37.35s-.18.14-.18.23a.28.28,0,0,0,.13.17.89.89,0,0,0,.28,0,4.14,4.14,0,0,1,1.66.43.19.19,0,0,0,0,.09.93.93,0,0,1,.33,0,12.34,12.34,0,0,0,1.15.57,5.3,5.3,0,0,1,.69.61c.27.23.46.51.73.77s0,.32.14.41.23.23,0,.37c.18.17.18.37,0,.55s0,.2,0,.31a.74.74,0,0,1-.14.55c-.18.2,0,.37,0,.58,0,0,0,.05-.18.11l-.09,0c0,.09,0,.14,0,.2s0,0,0,.12v0c0,.06,0,.06-.14.06v0l.1,0c-.1.06-.19.17-.33.26a.26.26,0,0,0,0,.09c-.23,0-.23.11-.23.14s-.1.09-.1.17-.09,0-.09.09h0c-.19.06-.23.17-.19.26l-.37.43v0s-.09.06-.09.09l-.18.23c-.09.08-.19.08-.19.11a.49.49,0,0,1-.32.26v0s-.18.09-.23.2a2.76,2.76,0,0,1-.83.63,3.11,3.11,0,0,0-.87.61c-.14.2-.51.2-.65.43s-.36.26-.59.37a2,2,0,0,1-.79.38s-.09.08-.27.17-.46.14-.6.32-.37.11-.6.14c0,.09-.09.09-.14.12a11.88,11.88,0,0,1-1.89,1l-.18.11.18.12s-.13.05-.18.05v-.17l-.23.17h.23c0,.06-.14.12-.23,0s-.09,0-.14.06.14,0,.14.06S105.92,101,105.73,101ZM91.42,93.46c0-.06,0-.09-.1-.11s0,0-.09,0L90,94.67c-.32.26-.5.66-.87.89a3.27,3.27,0,0,0-.74.75c-.5.6-1.15,1.18-1.65,1.73s-.92.95-1.29,1.41c-.09,0,0,0,.09.08h.09c.37-.43.83-.77,1.24-1.21a1.32,1.32,0,0,1,.65-.54c.18-.12.41-.29.41-.49a1.7,1.7,0,0,1,.65-.66A4.47,4.47,0,0,0,90,95.13s0-.06,0-.06c.51-.29.7-.72,1.16-1.06a.75.75,0,0,0,.23-.41C91.42,93.49,91.51,93.46,91.42,93.46ZM86.86,104.6l-.09,0h-.56v0a2.77,2.77,0,0,0-.5,0,.72.72,0,0,0-.23,0,2.14,2.14,0,0,1,.23.05h1.06S86.86,104.63,86.86,104.6Zm1.29-.2c-.23,0-.56,0-.88,0l0,.09,0,.06a3.87,3.87,0,0,0,.83-.06C88.15,104.51,88.15,104.42,88.15,104.4Zm1.79-.23a6.78,6.78,0,0,0-1.65.2v0h.55A3.59,3.59,0,0,0,89.94,104.17Zm2.35-.55h-.41c-.56.11-1.06.26-1.66.34-.09.09-.23.09-.23.21a2,2,0,0,0,.37,0,16.56,16.56,0,0,0,1.65-.41C92.2,103.73,92.29,103.71,92.29,103.62Zm.32-11.14c.14-.37.65-.57.83-.92a2.94,2.94,0,0,1,.69-.66c.19-.23.51-.46.51-.84a1.57,1.57,0,0,0-.78.61,4.85,4.85,0,0,1-.79.86l-.69.64c-.14.11-.32.25-.32.46A.8.8,0,0,0,92.61,92.48ZM93.4,81.4h-.6l-.19.12v0l.1.06A4.28,4.28,0,0,0,93.4,81.4Zm5.24,11.11a2,2,0,0,0,1-.29c.73-.34,1.52-.66,2.3-1a2.32,2.32,0,0,0,1.15-.54s.14,0,.18-.12a.67.67,0,0,0,.46-.11l.92-.46c.47-.2.88-.43,1.34-.66.09-.06.09-.15.23-.21a4.56,4.56,0,0,0-1.1.15,15.94,15.94,0,0,1-1.62.4A8.62,8.62,0,0,0,102,90a16.25,16.25,0,0,0-1.57.49,15.79,15.79,0,0,1-1.93.69,3.87,3.87,0,0,1-.64.11.46.46,0,0,0-.37.15,1.73,1.73,0,0,1-.56.28,11.44,11.44,0,0,0-1.38.49,6.92,6.92,0,0,1-1.06.52,1.53,1.53,0,0,0-1,1s0,.14.14.12c.6-.12,1.2-.21,1.8-.35A12,12,0,0,0,98,92.65,3.74,3.74,0,0,1,98.64,92.51ZM94,103.19a1.34,1.34,0,0,0,1.06-.23A2,2,0,0,0,94,103.19Zm.69-13.13c.1,0,.33-.11.37-.23a12,12,0,0,0,1.15-1.12,1,1,0,0,0,.56-.8,1.78,1.78,0,0,0-.6.48,2.55,2.55,0,0,1-.65.55s-.13.12-.13.15c0,.26-.33.4-.56.6S94.68,89.92,94.68,90.06Zm.88,1.39s0,0,0,.08h.33c.41-.29,1-.29,1.42-.6a1.77,1.77,0,0,1,.46,0,.22.22,0,0,0,.1-.2c.09-.12.09-.15.09-.23l-.46.08A8.42,8.42,0,0,0,95.56,91.45Zm2,11.28c-.14.23-.46.14-.65.17a2.7,2.7,0,0,1-1.19.32s-.14.11,0,.11,0,.09.14.09a4,4,0,0,0,.92-.12,3.89,3.89,0,0,1,.87-.31c.14,0,.46,0,.46-.15s-.27-.08-.37-.08S97.54,102.76,97.54,102.73ZM112,85.6a10,10,0,0,0,1.24-1.15,7,7,0,0,0,1.11-1.78c.23-.49.09-1,.27-1.38-.18-.46-.18-1-.55-1.33a2.11,2.11,0,0,0-1.57-.72c-.36,0-.69-.23-1-.26h-1.25c-.23,0-.27-.14-.32-.14a2.27,2.27,0,0,0-.78,0c-.09.14-.37.14-.6.14a3.38,3.38,0,0,0-1.29.06l0,0c0-.23-.23-.11-.36,0s-.33,0-.37,0a1.13,1.13,0,0,0-.32,0l-.19.21h.19a1.37,1.37,0,0,1,.92.25c.18.18.18.38-.1.49a.89.89,0,0,0-.64.49c-.14.09-.18.29-.32.32-.37.17-.42.4-.69.63a2.44,2.44,0,0,1-.56.64c-.18.11-.23.2-.23.25a1.22,1.22,0,0,1-.64.69l-.14.15a1.77,1.77,0,0,1-.69.6.55.55,0,0,0-.14.18c0,.25-.41.31-.41.54s-.46.41-.65.61a4.37,4.37,0,0,1-.92.89c-.32.32-.46.72-1,1-.14.34-.55.57-.87.89-.51.52-1,1.15-1.52,1.67-.14.12-.42.14-.37.35s-.32.25-.37.43-.09.11-.09.2,0,.06,0,.11h.09a4.26,4.26,0,0,0,1-.4c.28-.23.74-.14,1-.32a.46.46,0,0,0,.23,0,6.33,6.33,0,0,1,1.15-.43,9.46,9.46,0,0,0,1.2-.38c.69-.14,1.33-.26,2-.46a25.37,25.37,0,0,1,3.59-.6c.51,0,.92,0,1.29-.06.1-.06.28,0,.37,0a3.84,3.84,0,0,0,1.11-.55C110.34,86.7,111.3,86.18,112,85.6ZM96.76,87.91l.32-.06a7,7,0,0,1,.74-.81c.09,0,0-.14,0-.28l-.1,0A3.79,3.79,0,0,0,96.76,87.91Zm1.15-1.21a1.16,1.16,0,0,0,.32,0c.09-.23.46-.4.46-.75-.37.12-.41.4-.6.52s-.18.14-.18.23S97.91,86.7,97.91,86.7Zm3.36,3h.32c.09,0,.09-.11.09-.11s0-.12.28-.21.18-.11.46,0h.37c.14,0,.18,0,.18-.08l1.2-.2c.14,0,.14,0,.14-.06h-.37c-.19,0-.28-.06-.28-.17s-.32-.09-.37-.09a15.58,15.58,0,0,1-1.88.49l-3.18,1c-.14,0-.23.2-.32.23a1.76,1.76,0,0,0,.37,0h.18c.14.26.37.06.51,0s0-.09.13-.09a16.1,16.1,0,0,0,2.12-.57S101.27,89.72,101.27,89.69Zm-3.36,13a.65.65,0,0,1,.18,0S98.09,102.52,97.91,102.64Zm.18.2c.19,0,.51,0,.55-.14l1-.23c.09,0,.37,0,.41-.2a1.11,1.11,0,0,1-.55-.12c-.14,0-.27,0-.27.12a.15.15,0,0,1,.13.08c-.13.09-.13-.08-.13-.08-.23.14-.6.14-.74.37,0,0-.23,0-.37,0Zm.6-16.92a1.84,1.84,0,0,0,1-.6.57.57,0,0,0,.13-.46c-.41.28-.59.6-1,.86C98.69,85.81,98.69,85.83,98.69,85.92Zm9.58,2.85a.88.88,0,0,0-.28,0c-.51.32-1.2.6-1.89,1a3.52,3.52,0,0,1-1.79.78.34.34,0,0,0-.33.17,2.21,2.21,0,0,0-.32.23l-1.61.66-1.75.72a4.38,4.38,0,0,0-1.61.89h.51v.09c.13,0,.27.09.41-.09H99.2c0-.2.18-.14.41-.14.09-.29.55-.29.88-.43a1.15,1.15,0,0,1,.78-.26c.09-.15.32-.12.46-.12l0,.06c.1,0,.1-.06.19-.06s.41,0,.46-.11l-.19-.12.19,0v.15l.14-.15h-.14a.16.16,0,0,1,.18-.17V92c.19,0,.33,0,.37-.17h-.37c0-.11.23-.11.37-.11v.11c.19,0,.28,0,.28-.11H103a.59.59,0,0,1,.28-.15v.15c.09,0,.23,0,.23-.15h-.23c0-.08,0-.08.23-.11,0-.2.27-.23.64-.23v0a.59.59,0,0,1,.19,0l-.19,0c.19-.18.23-.29.42-.41a13.66,13.66,0,0,0,1.75-.77c.09-.06.18-.06.41-.06v.11l.18-.11h-.18c0-.12,0-.14.18-.14V90l.19-.12-.19,0a.92.92,0,0,1,.6-.46l.79-.41C108.27,88.86,108.36,88.83,108.27,88.77Zm-6.13,8.14a3.91,3.91,0,0,1-1.1.46,2,2,0,0,1-1.25.21c0-.06,0-.09.19-.09a7.07,7.07,0,0,1,1.43-.52A1.65,1.65,0,0,1,102.14,96.91ZM100,84.71l.37-.2c.1-.06,0-.09-.09-.17s-.09,0-.14.08A.3.3,0,0,0,100,84.71Zm1.16-1.06a.47.47,0,0,0,.36-.41C101.22,83.3,101,83.45,101.18,83.65Zm0,5.93s0,0,0,.11,0-.09-.09-.09S101.22,89.6,101.22,89.58Zm1.24,7.77a5.26,5.26,0,0,1,1.2-.29c0,.08,0,.23-.18.23-.37.06-.69.2-1.06.29C102.42,97.49,102.42,97.37,102.46,97.35Zm.14,3.71a4.87,4.87,0,0,0,1.38-.38,1.83,1.83,0,0,1,.92-.28v.11c.24,0,.42,0,.51-.11h-.51c.14-.15.33-.12.51-.15a.34.34,0,0,0,.18-.08v.08h.14l-.14-.08a.66.66,0,0,1,.65-.32V100a.34.34,0,0,1,.14,0s-.09,0-.14-.11a1.14,1.14,0,0,1,.87-.4v.11a.68.68,0,0,0,.28-.11h-.28s0-.12.28-.15c.09-.23.41-.31.69-.52h.28V99c.09-.09.09-.09.18-.09l-.18-.09c.09-.14.27-.14.46-.14,0,.06,0,.14.18.06l-.18-.06c0-.09,0-.17.14-.2a5.74,5.74,0,0,0,.92-.55l.46-.17c0,.06,0,.11.18.06-.14,0-.14,0-.18-.06v-.2l1.06-.46s0,.08.13,0l-.13,0c0-.15,0-.23.13-.32a3.21,3.21,0,0,0,.6-.37c.09-.06.09-.15.09-.26a2,2,0,0,0-.64.31,16.51,16.51,0,0,0-1.38.93c-.46.31-1.15.54-1.57.89a16,16,0,0,1-1.56.75c-.46.23-1.06.31-1.38.69-.46,0-.65.28-1,.31a1,1,0,0,0-.55.2,6.76,6.76,0,0,1-1.38.75C102.6,101,102.6,101,102.6,101.06ZM106,88.48a.83.83,0,0,0-.78,0s0,0,.09.09.23,0,.27.14h-.69V88.6c0-.06,0-.09-.18-.09a1.4,1.4,0,0,0-.6.23h.78v.12h.42c.18,0,.23,0,.27-.12a5.09,5.09,0,0,0,.7,0h.09c0-.08,0-.08-.09-.08S106.06,88.6,106,88.48Zm-.09,7.08,0,0c0-.08,0-.08,0-.08a.6.6,0,0,1,.5-.12h0l.14,0A2.09,2.09,0,0,1,105.92,95.56Zm1.52-7a5,5,0,0,1-.74,0c0-.09.09-.14.18-.14s.51,0,.74,0a1.26,1.26,0,0,0,.37-.09s.09,0,.09-.11-.09,0-.14,0a6.68,6.68,0,0,1-1.33.14c-.19.09-.51.09-.55.26h.64s0,.06,0,.06a2.32,2.32,0,0,0,.64.06s0-.06.09-.06Zm4.51-.2s0,0,0-.09h-.83l0,.06,0,0Z"/><path class="cls-2" d="M143,92.65a6.7,6.7,0,0,1-1.52.81,11.94,11.94,0,0,1-2,.83,13,13,0,0,0-1.71.75c-.41.2-.83.35-1.24.55a14.5,14.5,0,0,0-1.43.6,10.67,10.67,0,0,1-3.68,1.07c-.28,0-.51.09-.83.09a1.82,1.82,0,0,1-1.75-.38.46.46,0,0,0-.14-.2.88.88,0,0,1-.64-1v-.35a1.18,1.18,0,0,1,.37-1,4.47,4.47,0,0,1,.37-.67s-.1,0-.1,0h0a.41.41,0,0,0-.19,0c-.78.46-1.65.86-2.44,1.29s-1.56.72-2.34,1.09a4.13,4.13,0,0,0-.83.46,9.25,9.25,0,0,1-2.67.93,1.36,1.36,0,0,1-1.29-.09c-.83-.46-1.06-1-.83-1.58a4.47,4.47,0,0,1,1.15-1.64,20.25,20.25,0,0,1,3.18-2.82.93.93,0,0,1,1.19-.06c.1.06.19.08.19.17s.18.23,0,.29a2.94,2.94,0,0,0-.6.57,9.89,9.89,0,0,1-1.06,1.16,8.49,8.49,0,0,0-.83.92,10.3,10.3,0,0,0-1.1,1.18c-.19.17-.23.4-.42.54l.23.09a7,7,0,0,0,.83-.26c1.38-.66,2.76-1.32,4.24-1.93l5.61-2.53a2.61,2.61,0,0,1,1-.23c0-.06.09,0,.23,0s.32.08.46.17c.41.09.6.23.41.49a1.36,1.36,0,0,1-.13.43c-.42.23-.56.61-.92.81a1.61,1.61,0,0,1-.23.08c-.56.84-1.34,1.64-1.85,2.48,0,.2,0,.23.19.23a4.91,4.91,0,0,0,2.21-.29c1.52-.55,2.85-1.12,4.23-1.73s2.9-1.09,4.42-1.78l.6-.23c1.06-.46,1.34-.55,2.17,0C143.52,92.28,143.25,92.51,143,92.65Zm-6.21,1.64c-.37,0-.6.09-.65.32C136.39,94.61,136.71,94.52,136.76,94.29Zm.55-.23s-.19,0-.19,0a.7.7,0,0,0-.27.21.93.93,0,0,0,.46-.09Zm1.52-.23c-.19,0-.37,0-.42.21C138.64,94,138.78,94,138.83,93.83Zm1.47-.54c-.37-.06-.6,0-.69.29A.92.92,0,0,0,140.3,93.29Zm-.46-.26a.54.54,0,0,0,.28.06s0,0,.18,0a.73.73,0,0,0,.19-.26c-.14,0-.37,0-.42.14Z"/><path class="cls-2" d="M171.28,92.17a1.59,1.59,0,0,1-.37.14,4.63,4.63,0,0,0-1.43.37c-1.51.64-3.08,1.38-4.65,2.08a7.68,7.68,0,0,1-1.19.57c-.42.17-.69.4-1.06.55-1.24.66-2.35,1.26-3.59,1.87a11.12,11.12,0,0,1-1.29.49c-.92.31-1.75.69-2.67,1a2.77,2.77,0,0,1-1.11.23,9.94,9.94,0,0,0-1.51.26,2.4,2.4,0,0,1-.88-.11c-1.7-.58-2.07-1.64-1.75-2.62a.71.71,0,0,1,.19-.46c.59-.81,1.28-1.64,1.93-2.45.51-.51,1-1.06,1.52-1.58.14-.09.32-.29.32-.43a3.36,3.36,0,0,0-.87.43c-.6.52-1.34.86-1.94,1.3a14.18,14.18,0,0,0-1.66,1.26A28.46,28.46,0,0,1,146,97.14a2.4,2.4,0,0,1-.51.23,3.64,3.64,0,0,1-1.34.81,2.16,2.16,0,0,0-.5.17,7,7,0,0,1-1.89.64,4.49,4.49,0,0,1-1,0,2.22,2.22,0,0,1-2-1.62,1.84,1.84,0,0,1,.46-1.44,14.73,14.73,0,0,1,2.58-2.9,9.92,9.92,0,0,1,1.71-1.18,29.77,29.77,0,0,1,2.85-1.7,6.21,6.21,0,0,1,2.3-.55,13,13,0,0,1,2.4.35,11.07,11.07,0,0,1,1.1.49.87.87,0,0,0,.74,0,1.14,1.14,0,0,0,.23-.15c0,.21,0,.35-.14.47s0,.2.09.25.09.09.32,0l.28-.08a26.55,26.55,0,0,0,2.67-1.87c.37-.21.69-.41,1.06-.58a8.14,8.14,0,0,0,1.61-1.29c.92-.67,1.8-1.39,2.58-2,.46-.34.83-.57.78-1a.34.34,0,0,1,.14-.23c.74-.49,1.52-.95,2.16-1.41a10.44,10.44,0,0,0,2-1.46,10.34,10.34,0,0,1,1.38-.81c.55-.29,1.29,0,1.33.35a1,1,0,0,1,0,.37.38.38,0,0,0,0,.43c.18.2,0,.4-.28.58s-.83.51-1.19.74A16.73,16.73,0,0,0,164.7,85a11.45,11.45,0,0,1-1.29.83c-.56.55-1.2,1.13-1.8,1.62s-1,1-1.65,1.41c-1,.74-1.85,1.58-2.81,2.41-.33.23-.51.61-1.06.66-.05,0-.05.12-.05.12.05.26-.09.37-.37.49s-.23.43-.37.57c-.59.52-1,1.07-1.56,1.56a3.85,3.85,0,0,0-.78.92,5.6,5.6,0,0,1-.55.58,6.14,6.14,0,0,0-1.25,1.72c-.23.63,0,.81,1,.55a11.26,11.26,0,0,0,3.22-.92,38,38,0,0,0,3.73-1.7C161,94.78,163,94,164.93,93c1.29-.63,2.67-1.09,4-1.61a1.91,1.91,0,0,1,1.06,0c.14.29.74.17,1,.35.13,0,.23.14.32.17S171.37,92.14,171.28,92.17ZM149,92.88c.42-.23.74-.37,1.06-.57.46-.38.88-.69,1.38-1,.05-.14,0-.23-.18-.23h-1.06a6.44,6.44,0,0,0-3.22.64,11.2,11.2,0,0,0-1.93,1,1.34,1.34,0,0,0-.56.43c-.14.26-.55.47-.78.67a14.69,14.69,0,0,0-2.3,2,6.88,6.88,0,0,0-.92,1.56c-.09.08,0,.2,0,.23a1.09,1.09,0,0,0,.33,0l1.88-.78c.79-.4,1.61-.89,2.49-1.35C146.56,94.55,147.94,93.72,149,92.88Zm3.09-1.32a.32.32,0,0,0-.37,0,1.89,1.89,0,0,0-.64.49l-3,2.1a2.52,2.52,0,0,1-.37.26c-.14.14-.42.29-.6.46a4.64,4.64,0,0,0,.6-.2,24.58,24.58,0,0,0,3-1.79c.41-.25.78-.54,1.15-.8l.32-.23C152.27,91.82,152.22,91.68,152.13,91.56Zm1.33-1.44,1.25-.89a3.58,3.58,0,0,0,.41,0,.32.32,0,0,1,.23-.46c.42-.32.92-.58,1.43-.89a4.21,4.21,0,0,1,.6-.46,1.72,1.72,0,0,0,.87-.58s.28,0,.32-.09.14-.2.28-.23.05-.08.05-.08.09.11.09.11a.8.8,0,0,1-.6.66c-.46.23-.92.58-1.38.81a13.57,13.57,0,0,1-1.71,1.18s-.09,0-.18,0v.06a5.62,5.62,0,0,1-1.2.83C153.79,90.24,153.6,90.15,153.46,90.12Zm9,4.75a1.43,1.43,0,0,0-.78.26A.86.86,0,0,0,162.44,94.87Zm.88-.58c-.23,0-.37.12-.37.26C163.32,94.55,163.32,94.55,163.32,94.29Zm4.09-1.66a6.78,6.78,0,0,0,1.06-.46,2.5,2.5,0,0,0-1.15.25,13.37,13.37,0,0,0-1.66.72,2.73,2.73,0,0,0-1.15.49c-.37.23-.87.35-1.19.58a1.87,1.87,0,0,0,1.05-.15C165.34,93.58,166.4,93.06,167.41,92.63Z"/><path class="cls-2" d="M194.06,93.66a2.55,2.55,0,0,0-1.33.52c-.92.2-2.53.6-2.9.72-.09.09-.09.09-.09.11a.31.31,0,0,1,.18.09c.41-.09.88-.2,1.38-.29v0h0a2.14,2.14,0,0,0-1.2.55h-.14c-.55,0-.6.29-.92.37l-1.34.29a12.81,12.81,0,0,1-2.85.72c-.74.09-1.47.14-2.26.26h-.46a2.73,2.73,0,0,1-1.79,0c-.51-.11-1.06-.23-1.29-.6a2.86,2.86,0,0,1-.18-.35,1.45,1.45,0,0,1-.56-2,7.13,7.13,0,0,1,.56-1.15v0c-.14-.09-.14-.09-.19,0l-3.27,1.44c-.64.23-1.29.49-1.84.72a18.33,18.33,0,0,1-2.07.92c-.78.37-1.66.66-2.49,1a3.43,3.43,0,0,1-.46.11c-.5,0-1,0-1.52,0-1.24-.14-1.7-.58-1.88-1.44a1.25,1.25,0,0,1,.32-.89c.32-.29.78-.61,1.1-.92,1-.72,2.08-1.35,3-2a27.68,27.68,0,0,1,3.18-1.55,15.12,15.12,0,0,1,3.18-.81,3.27,3.27,0,0,1,2.34.55c.23.2.19.43-.13.37a6.64,6.64,0,0,0-2.86.29A14.24,14.24,0,0,0,172.43,92a18.48,18.48,0,0,1-1.61,1,17.44,17.44,0,0,0-2.17,1.35c-.37.12-.18.4-.46.52-.92.57-.92.57-.69.66a4.39,4.39,0,0,0,1.11-.26,29.94,29.94,0,0,0,3.82-1.47c1.33-.51,2.62-1.09,3.91-1.66,1-.44,1.89-.81,2.85-1.18.23-.06.37-.15.51-.18a.64.64,0,0,1,.28,0c.36.34.87.23,1.29.37,0,.06.18.06.32.09-.28.23.32.23.32.43s.14.37-.09.46c-.23.29-.19.63-.32.89a8.49,8.49,0,0,0-.83,1.18,2.44,2.44,0,0,0-.46.72c0,.26-.51.34-.28.57a5,5,0,0,0,1.15.09,14.1,14.1,0,0,0,3.45-.46l2.49-.69c2.53-.6,5-1.27,7.5-1.76.56-.08,1.25-.14,1.85-.28a.78.78,0,0,0,.36-.06l.1.09c-.05,0-.05.11-.05.11a.67.67,0,0,0-.19.12,11.12,11.12,0,0,0-2.43.37v0c.36.08.73.11,1.05.17l-.13.12A1.91,1.91,0,0,0,194.06,93.66Zm-20.21,0h-.09v.06Zm.23-.2s-.13.12-.13.14S174.08,93.6,174.08,93.46Zm.65-.26a1.07,1.07,0,0,0-.6.26C174.45,93.46,174.68,93.37,174.73,93.2Zm.74-.29a.87.87,0,0,0-.65.29C175.23,93.23,175.42,93.11,175.47,92.91Zm.78-.28c-.32,0-.6,0-.65.23C175.79,92.86,176.2,92.83,176.25,92.63Zm.69-.32a.68.68,0,0,0-.69.32A.78.78,0,0,0,176.94,92.31Zm.74-.29c-.37,0-.6.09-.7.29A.94.94,0,0,0,177.68,92Zm.69-.29a.62.62,0,0,0-.69.29A.76.76,0,0,0,178.37,91.73Zm.64-.28c-.32,0-.55,0-.64.25C178.69,91.73,179,91.65,179,91.45Zm.18-.12h0v0ZM187,95.45a5.67,5.67,0,0,0-1,0c-.92.11-1.8.25-2.81.4,0,0-.09.06-.28.11V96s0,0,.09,0,0,0,.1,0a4.14,4.14,0,0,1,2.07-.12h.14A10,10,0,0,0,187,95.45Zm.41-.81c0-.09-.09-.09-.13-.09h-.1c.1.09.14.09.14.09Zm.28.75c-.05,0-.09,0-.05.08S187.71,95.45,187.71,95.39Zm.6-.09c-.05,0-.05-.06-.09-.06-.19,0-.33.06-.33.15h.37A.11.11,0,0,0,188.31,95.3Zm-.09-.89h-.14l.14.06Zm.69-.2c-.14.06-.51,0-.65.17h.42C188.86,94.38,188.91,94.32,188.91,94.21Zm1.24-.26a1.48,1.48,0,0,0-1.15.26,2,2,0,0,0,1.15-.2Zm1.15-.29a1.75,1.75,0,0,0-1.15.26A1.44,1.44,0,0,0,191.3,93.66Zm.09,1.12a.22.22,0,0,0-.09,0A.22.22,0,0,1,191.39,94.78Zm.69-1.32h-.55s-.09.14-.09.2A.68.68,0,0,0,192.08,93.46Zm2-.35h0a5,5,0,0,0-2.08.32v0A8,8,0,0,0,194.11,93.11Zm-1,.49v0h-.09Zm2.49-.69c-.09.06-.19.15-.19.2h0c-.19-.08-.32-.08-.19-.2A1.16,1.16,0,0,1,195.63,92.91Zm.05,0s0,0,.09,0S195.68,92.88,195.68,92.91Z"/><path class="cls-2" d="M199.54,93.17h.14v0s0,0,.13,0,.05,0,.05-.08,0-.06-.05-.06-.09,0-.13,0c.13-.14.36-.12.64-.12.09,0,.14-.08.23-.08a2,2,0,0,0,.74-.23l.14.11c.27,0,.59,0,.69-.26a.66.66,0,0,1,0-.11c.19,0,.42.09.6,0s.28-.12.32-.09a3,3,0,0,0,1.38-.14,9,9,0,0,1,3.41-.26,17.46,17.46,0,0,1,2,.14,5.2,5.2,0,0,1,2.44,1c.13.06.18.2.32.29.18.32.46.43,1,.34a16.22,16.22,0,0,0,1.7-.2c.83-.08,1.52-.23,2.35-.37a14.58,14.58,0,0,0,1.94-.15c.59-.08,1.33-.08,2.07-.11.14,0,.23-.09.46-.09a1.37,1.37,0,0,1,1.24.18s0,0,0,0c.36.29.36.29.6.29s.27.15.27.23.05.41,0,.43a1,1,0,0,1-.87,0,7.94,7.94,0,0,0-1.29,0,7.72,7.72,0,0,0-1.71.15c-.59.08-1.19.14-1.7.23s-1.2.08-1.75.2c-1.29.11-2.39.4-3.64.58-.73.05-1.19.28-1.24.69,0,.2-.14.28-.37.4a16.66,16.66,0,0,1-4.32,1.55,12.38,12.38,0,0,1-1.89.15c-.92-.06-1.52-.41-1.57-1a1.42,1.42,0,0,1,.05-.43c0-.26.28-.46.69-.64a30.35,30.35,0,0,1,4.19-1.2,19.9,19.9,0,0,0,2.25-.46c.33-.06.47-.18.47-.35.09-.66-.14-.89-1.06-1.12a4.26,4.26,0,0,0-1-.15h-2.49a8.09,8.09,0,0,0-1.42.23,3.71,3.71,0,0,1-1.57.23.26.26,0,0,0-.23.09l-2.71.63a30.93,30.93,0,0,0-4,1.5c-.09,0-.32.14-.32.23-.6.63-1.71,1.09-2.07,1.78a.87.87,0,0,1-.83.52c-.14,0-.09.09-.09.15a.25.25,0,0,1,0,.4,3.54,3.54,0,0,0-1.61,1.41l-.23.2c-.42.38-.83.66-1.2,1a1.34,1.34,0,0,1-.92.57c-.23.12-.18.38-.41.52a1.35,1.35,0,0,0-.74.46,24.79,24.79,0,0,1-2,1.56,16.37,16.37,0,0,1-2,1.46,11,11,0,0,0-1.24.61c-.6-.2-.83-.46-.92-.81a1.94,1.94,0,0,1,.64-2c.42-.35.65-.72,1-1a8.36,8.36,0,0,1,.93-1,22,22,0,0,1,1.7-1.5,21.55,21.55,0,0,1,3.73-2.59c.46-.25,1-.6,1.47-.92l.78-.26c.1.18.1.18.37,0h-.37a1.36,1.36,0,0,1,1.11-.54v.08c.23,0,.18,0,0-.11,0-.06.18-.15.23-.26a2.46,2.46,0,0,0,1.15-1.07l.51-.57a9.71,9.71,0,0,0,1.38-1.9,1.06,1.06,0,0,1,1.15-.49,3,3,0,0,1,1,.29c.41.23.32.43,0,.63a2.45,2.45,0,0,0-1,1.58h.32a.2.2,0,0,0,.09-.14c.09-.06.28-.09.32-.14h-.23l-.09-.06c.09,0,.09,0,.09,0h.23v.09a1.14,1.14,0,0,0,.56-.09h-.14v-.06h-.42a.48.48,0,0,1,.42-.14Zm-7.46,4.61a7.28,7.28,0,0,0-1.61.89,6.13,6.13,0,0,1-1.38.92,28.86,28.86,0,0,0-3.55,2.62,5.44,5.44,0,0,1-.73.69,8.83,8.83,0,0,1-1.48,1.73s0,.11.14.17h.14a3.19,3.19,0,0,1,.74-.38,21.92,21.92,0,0,1,2.07-1.49l2-1.64a37.71,37.71,0,0,0,2.85-2.59A5.78,5.78,0,0,0,192,98,.17.17,0,0,0,192.08,97.78ZM188,102.32c-.28.09-.42.23-.42.41A.46.46,0,0,0,188,102.32Zm.51-.43c-.28.06-.28.15-.28.29C188.54,102.12,188.54,102,188.54,101.89Zm.92-.75a1.28,1.28,0,0,0-.92.69,1.19,1.19,0,0,0,.92-.66Zm1.88-1.78c-.27.14-.36.23-.36.43A.39.39,0,0,0,191.34,99.36Zm17.91-3.51h-.37c-1,.23-1.88.49-2.8.78,0,0-.14,0-.14.05.23,0,.36.06.46,0a6.76,6.76,0,0,0,2.76-.75C209.25,95.93,209.25,95.88,209.25,95.85Zm12.89-2.68c0-.08-.18-.08-.18-.08s-.09-.06-.19-.06c-2.3.23-4.55.46-7,.8-.09,0-.23.09-.46.15V94c.65-.06,1.38-.06,2.07-.18a31,31,0,0,1,3.5-.4l1.8-.14.23-.09C222.14,93.23,222.14,93.17,222.14,93.17Z"/><path class="cls-2" d="M241.79,93.72c0,.06-.23.09-.27.09a11.66,11.66,0,0,0-2.21.48c-1.15.32-2.3.58-3.41.87-.14.06-.32.06-.37.11-.92.43-2.07.55-3,.9s-2,.54-3,.83A18.69,18.69,0,0,1,225,98a1.46,1.46,0,0,0-.64.2,5.16,5.16,0,0,1-2.49-.14,3.13,3.13,0,0,1-1.2-.44,1.94,1.94,0,0,1-1-1,1.48,1.48,0,0,1,0-1.27L220,95a8.51,8.51,0,0,1,3.22-2.57,22.07,22.07,0,0,1,4.19-1.92,5.16,5.16,0,0,1,1.66-.44c.41-.11,1-.14,1.38-.25a2,2,0,0,1,1.66-.09c.09.09.23,0,.41.09a1.29,1.29,0,0,1,.51.11,2.72,2.72,0,0,1,.73.63.67.67,0,0,1-.09,1.13,4.56,4.56,0,0,1-1.89,1.2l-.64.26a12,12,0,0,1-4.28,1.07,5.46,5.46,0,0,1-1.34.08c-.59,0-1.33-.08-2.07-.08a.64.64,0,0,0-.41.11,9.72,9.72,0,0,0-2.07,2c-.14.29,0,.46.36.55a3.38,3.38,0,0,0,1.57.08,19.7,19.7,0,0,0,3-.34c.78-.09,1.61-.41,2.34-.55s1.57-.49,2.35-.75c.23.17.23.17.46,0a4.42,4.42,0,0,1,1.2-.46c.09-.11.32-.11.6-.17,1.52-.41,3.08-.89,4.51-1.27a12.84,12.84,0,0,1,1.33-.32,6.73,6.73,0,0,0,1.15-.37,1.41,1.41,0,0,1,1.34.23,1.28,1.28,0,0,0,.41.17C241.89,93.26,242.07,93.58,241.79,93.72Zm-18,.06c.14.08.42,0,.56,0a1.88,1.88,0,0,1,.6-.06v.06c.41-.06,1-.09,1.33-.15.55-.11,1-.2,1.57-.37a12.68,12.68,0,0,0,3.22-1,2.36,2.36,0,0,0,1.15-.86.43.43,0,0,0,.14-.4c.14-.15-.05-.2-.23-.32a.29.29,0,0,0-.37.12c0,.11-.28.14-.55.14a9.64,9.64,0,0,0-2.9.57,21.65,21.65,0,0,0-3,1.27l-1.24.75S223.75,93.69,223.79,93.78Z"/><path class="cls-2" d="M255.88,93.83a1.73,1.73,0,0,0-.74.09h.14s-.05.06-.09.06h.28v.08a5.5,5.5,0,0,1-.93.35,5.38,5.38,0,0,0-1.28.46,2.71,2.71,0,0,0-.42,0c-.64.23-1.33.43-2,.69-.47,0,0,.29-.47.29a5.25,5.25,0,0,1-.73.26c-.55.28-1.11.49-1.75.75a2.65,2.65,0,0,0-1.15.37c-.46.11-.51.26-.51.52a3.75,3.75,0,0,0,.14.74,1.43,1.43,0,0,1-.28,1.41c-.36.72-.82,1-1.75,1.5-.59.38-1.24.69-1.84,1a2.36,2.36,0,0,1-1.1.37c-.46.09-.83.09-1.15.18a2.73,2.73,0,0,1-2.12,0c-.55-.18-1.1-.26-1.52-.44-.6-.11-.92-.34-1.06-.72a.9.9,0,0,1,.09-1.18c0-.08.14-.11.28-.25A18.13,18.13,0,0,1,239,99c.46-.23,1-.44,1.57-.67,1.2-.43,2.3-.95,3.59-1.41.23-.14.32-.23.05-.4a14.13,14.13,0,0,0-1-1.09c-.59-.61-1.15-1.36-1.79-2a1.51,1.51,0,0,1-.46-1.15.8.8,0,0,1,.46-.86,4.61,4.61,0,0,1,1.47-.58,16.3,16.3,0,0,1,2.44-.11,4.76,4.76,0,0,1,2.63.86c.27.17.18.34,0,.46a2.34,2.34,0,0,1-1.84-.17c-.14-.09-.14-.12-.23,0-.14.31-.33.37-.69.28a2,2,0,0,0-1.15,0,3.43,3.43,0,0,0-.88.43c-.32.15-.5.35-.32.61a2.39,2.39,0,0,0,.78,1.26,11.83,11.83,0,0,1,1.57,1.65c.18.28.32.28.78.14A39.74,39.74,0,0,1,249.8,95a.65.65,0,0,1,.42-.12c-.05.12-.19.17-.19.23a2.25,2.25,0,0,0,1.06-.23.55.55,0,0,0,.19-.09c-.14,0-.33-.11-.37,0a5.68,5.68,0,0,1-.69.09c.09-.09.13-.2.27-.23,1.34-.35,2.72-.72,4-1.15H255v.2c-.23,0-.42,0-.46.14a.82.82,0,0,0,.55-.14c.09-.09,0-.11,0-.2s0-.09.09-.12c.74-.2,1.61-.37,2.35-.49a1.35,1.35,0,0,1,1,.21c.18.08.32.14.23.28l-.37.12a3.31,3.31,0,0,1-.74.11,1.14,1.14,0,0,1-.83,0,.26.26,0,0,0-.36.11h-.05c-.23,0-.32,0-.46.14h.46A.29.29,0,0,1,255.88,93.83ZM245,98c-.78.29-1.47.52-2.12.83a17.36,17.36,0,0,1-3,1.33,7.17,7.17,0,0,0-2.25,1.12c-.05.06-.19.14-.19.2s0,.09.14.09.74.11,1.11.2a4.31,4.31,0,0,0,1.52,0c.18,0,.41-.09.64-.09a4.09,4.09,0,0,0,2.21-.72c.18-.14.41-.2.64-.34C244.74,99.85,245.38,99,245,98Zm-1-.58,0,.06a2.85,2.85,0,0,0,.46-.17s0,0-.09,0a.49.49,0,0,0-.41.12Zm2.76-1c-.37,0-.65.08-.69.29A.79.79,0,0,0,246.72,96.34Zm1.15-.46a1.69,1.69,0,0,0-1.11.43A1.53,1.53,0,0,0,247.87,95.88Zm1.38-.18h-.41v-.11c-.42,0-.74,0-.92.29h.69l.23-.18v.18C249,95.88,249.25,95.88,249.25,95.7Zm1-.28h-.37c0,.17-.37.17-.55.17.09-.17.27-.17.5-.17v-.09c-.5-.06-.78-.06-1,.26h.46v.11C249.8,95.82,250,95.7,250.22,95.42Zm.55-.09c-.28-.06-.46-.06-.55.09C250.49,95.42,250.63,95.47,250.77,95.33Zm.37-.2c-.19,0-.32,0-.37.14C250.91,95.33,251.14,95.27,251.14,95.13Zm1-.26c-.23,0-.36-.06-.46.12C251.87,95,252.06,95,252.1,94.87Zm.51-.2c-.18,0-.41,0-.51.2C252.43,94.87,252.52,94.87,252.61,94.67Zm.92-.26h-.37a.56.56,0,0,1,.1-.29.84.84,0,0,0-.83.29h.73v.11A.48.48,0,0,0,253.53,94.41Zm1-.58h-.19c-.13,0-.13,0-.18,0s.05.06.18.06a.24.24,0,0,0,.19.06v.08c.23,0,.55.15.64-.08v-.06h-.64Z"/><path class="cls-2" d="M267.62,88.51a1.11,1.11,0,0,0,.46-.09.49.49,0,0,0,.41,0,1.55,1.55,0,0,1,.41,0h2.26a1.12,1.12,0,0,0,.55-.08H272c.92-.06,1.79-.06,2.67-.06a1.93,1.93,0,0,0,.41,0,1,1,0,0,1,.37,0h2.71a3.18,3.18,0,0,0,1-.12c.14,0,.23-.06.37-.06s.18.06.32.06h1.24s.14-.06.19-.06.09,0,.14,0a1.73,1.73,0,0,0,1,0,.3.3,0,0,1,.23,0,1.9,1.9,0,0,0,.74.06c.09-.06.09-.09.14-.09.14-.17.23-.17.37,0-.1,0-.1,0-.14,0l0,.06c.1-.06.1-.09.1-.14a.26.26,0,0,1,.18,0c.18,0,.32-.14.55,0a3.18,3.18,0,0,0,.69,0,2,2,0,0,0,.69,0,1.38,1.38,0,0,1,.6-.06c.1,0,.14.06.23.14s0,.12.14.18.42.34.42.46V89c0,.11-.1.2-.28.2H278.2a.69.69,0,0,0-.36.06,1.06,1.06,0,0,1-.28,0h-1.47c-.69,0-1.29,0-1.89,0h-.28a1.76,1.76,0,0,1-.64.08h-2.53a1.29,1.29,0,0,0-.6.09.54.54,0,0,1-.28.06h-1.33a2,2,0,0,0-.88.08s-.14,0-.27,0c-.33,0-.74,0-1.16,0a1.73,1.73,0,0,0-.69.06,1,1,0,0,1-.27,0h-1.15a3.78,3.78,0,0,0-.65.08,1.1,1.1,0,0,0-.69.26c-.14.18-.32.26-.46.43s-.37.26-.46.44c-.41.43-1,.86-1.33,1.32a1.05,1.05,0,0,0-.33.26c-.13.09-.27.17-.27.32s0,.08-.09.08a2.64,2.64,0,0,0-.46.55,4,4,0,0,1-.42.37c-.09.06-.09.15-.14.18-.18.23-.32.43-.46.6s-.41.35-.5.58c0,0-.05,0-.05.11a1.9,1.9,0,0,1-.51.69.67.67,0,0,1-.18.38c-.14.08-.09.23-.09.34s0,.15,0,.17a.41.41,0,0,0-.14.38.28.28,0,0,1-.09.23c0,.08.09.11,0,.2s0,.09,0,.14a.15.15,0,0,0,0,.12s.09.06,0,.08v.06c-.14.12,0,.2,0,.35s0,.08.13.08.19.09.19.18v.17s.14.09.14.09a5,5,0,0,0,.5,0H258a2.64,2.64,0,0,0,.83.09,1.08,1.08,0,0,0,.46-.09c.23,0,.42-.11.65-.11a.48.48,0,0,0,.14-.06,2.75,2.75,0,0,0,.41-.17s.18,0,.32,0,.42-.14.55-.23a5.67,5.67,0,0,1,.7-.29,2.1,2.1,0,0,0,.59-.31,1.66,1.66,0,0,0,.37-.09h.14a4.08,4.08,0,0,1,1-.37c.14,0,.18-.06.32-.09s.14-.12.23-.17a.13.13,0,0,1,.14-.09,6.22,6.22,0,0,0,.73-.37,1.94,1.94,0,0,1,.42-.18l.41-.26a2.66,2.66,0,0,0,.83-.4,1.88,1.88,0,0,1,.55-.26c.14,0,.19-.17.42-.17v.09a.24.24,0,0,1-.14.25c-.09.06-.23.15-.23.23s-.14,0-.18.12v0c-.14,0-.37,0-.42.12s-.27.14-.27.26-.23,0-.23.08a.54.54,0,0,0-.28.06,5.66,5.66,0,0,0-1,.52,1.52,1.52,0,0,1-.56.23c-.18.08-.41.17-.59.26s-.37.17-.65.26a.58.58,0,0,0-.32.23c-.14.08-.37.08-.51.17s-.32.09-.41.17l-.05,0a.33.33,0,0,1-.23.06s0,0-.14.08v0c.1.06.14.06.14,0s.23-.08.23-.17h.55a.28.28,0,0,0,.19-.09c0-.08.09-.08.23-.11a3.56,3.56,0,0,0,.41-.17,1.84,1.84,0,0,0,.42-.23,1.17,1.17,0,0,0,.46-.18c.23-.17.55-.2.73-.37a3.83,3.83,0,0,1,.83-.35,5.44,5.44,0,0,1,.56-.37v-.06c.13,0,.23,0,.23-.11a1.11,1.11,0,0,0,.46-.09c.09,0,.13,0,.13,0v.09a5.17,5.17,0,0,1-1,.51c-.14.06-.19.15-.33.18l-.36.14c-.05,0-.05,0,.13.06a.13.13,0,0,1,.14.14v-.06c-.14.06-.14.09-.14.15s-.18,0-.18.11-.23.06-.23.15c0-.06,0,0-.14,0h.09s0,0,0-.09.23,0,.23-.09.14,0,.14-.11h.18v.17a3,3,0,0,1-.46.37c-.23,0-.27.24-.5.26a4.54,4.54,0,0,0-.51.32c-.41.09-.65.35-1,.43s-.69.23-1.06.32a3.28,3.28,0,0,0-.46.23,8.41,8.41,0,0,1-1.29.37c0,.06,0,.06-.09.06a1.45,1.45,0,0,0-.69.09c-.18,0-.41,0-.6.08a4.57,4.57,0,0,1-.64,0,.3.3,0,0,0-.19.06.68.68,0,0,1-.59,0,1.48,1.48,0,0,1-.79-.26,2.86,2.86,0,0,0-.55-.26c-.14-.08-.28-.17-.41-.23a1.51,1.51,0,0,1-.28-.29,1.14,1.14,0,0,0-.32-.26.71.71,0,0,1-.19-.2c-.09,0-.13-.08-.13-.17s-.23-.32-.23-.43a6.45,6.45,0,0,0,0-1.32.55.55,0,0,1,.13-.44.39.39,0,0,0,.1-.31.35.35,0,0,1,.13-.26s0-.09,0-.09,0-.2.05-.29.13-.34.27-.51a4.83,4.83,0,0,0,.51-.61c-.14-.11,0-.17.14-.2s0-.06,0-.09.1-.08.1-.08l0-.06.65-.72v-.17h0c.14-.09.23-.18.28-.2a.4.4,0,0,0,.14-.26c.09-.09-.05-.15-.05-.23s.05,0,.05,0c.27,0,.27,0,.36-.06a.41.41,0,0,0,.14-.26s.05,0,.05,0,0-.06-.05-.06v-.11c0-.06.05-.09.14-.14s.05.08.05.08.13,0,.13-.08.1,0,.14,0,0,0,0-.06-.1.09-.1.09h-.18c0-.18.14-.26.37-.35,0,.06,0,.09.09.09H259a.55.55,0,0,0-.19-.09c.05,0,0,0,.05-.06a1.82,1.82,0,0,1,.51-.6,5.42,5.42,0,0,1,.46-.49v0s0-.06,0-.06h-1.43a6.75,6.75,0,0,1-1.52.15,3,3,0,0,0-.83.08,1.44,1.44,0,0,1-.36,0l-1.15,0a1.88,1.88,0,0,0-.6.06,1.06,1.06,0,0,1-.28,0h-1.1a.46.46,0,0,0-.28.06,7.18,7.18,0,0,1-1.1.08,1.23,1.23,0,0,0-.28,0,1.22,1.22,0,0,1-.46.06c-.37,0-.69,0-1.06,0a1.76,1.76,0,0,0-.64.08.35.35,0,0,1-.37,0,1.07,1.07,0,0,0-.56-.06.31.31,0,0,1-.27-.12.5.5,0,0,1-.32-.43v-.34a.17.17,0,0,1,.13-.18,2.39,2.39,0,0,1,.74-.31.76.76,0,0,1,.37,0,.55.55,0,0,0,.41.05.27.27,0,0,1,.19-.05s.09,0,.14,0a3.53,3.53,0,0,0,1.1-.09h.88a1.59,1.59,0,0,0,.55-.09.45.45,0,0,1,.23,0,.53.53,0,0,0,.41.06,2.19,2.19,0,0,1,.74-.08h1.1a1.37,1.37,0,0,0,.6-.09H255a5.94,5.94,0,0,0,1-.06,1,1,0,0,0,.28,0,1.21,1.21,0,0,1,.42,0h2a1.11,1.11,0,0,0,.6-.09.3.3,0,0,1,.23,0,1.42,1.42,0,0,0,.6.09c.28,0,.65,0,.92,0a.86.86,0,0,0,.6-.21c.14-.08.23-.26.42-.34s.41-.23.46-.35a8.64,8.64,0,0,1,1.1-.77c.23-.12.28-.29.51-.43a2.24,2.24,0,0,0,.55-.35,15.15,15.15,0,0,1,2-1.32,6.55,6.55,0,0,0,.55-.38c.14-.06.19-.14.28-.17s.27-.15.41-.15.19.06.28.06.14,0,.23,0,.37.09.41.23a2.37,2.37,0,0,0,.37.26c.05,0,.05.12.05.2s.09.18.09.29c-.09.52.05.43-.55.78a14.87,14.87,0,0,1-1.38.86,4.92,4.92,0,0,1-.46.29c-.23.17-.65.23-.79.43a3.44,3.44,0,0,1-.55.43c-.14.09-.18.17-.14.26s-.14,0-.18.06l0,0c.1,0,.14,0,.1-.09Zm-10.87.75,0-.06h-.24s0,.06-.13.06a.58.58,0,0,0,.23,0h0C256.71,89.29,256.75,89.29,256.75,89.26Zm-.18,4.66h0s.1,0,.1.09S256.57,94,256.57,93.92Zm1.24-4.63a.29.29,0,0,1,.14,0c-.09,0-.14-.06-.23-.06h-.55l-.05.06s0,0,.05,0h.64ZM257.26,93l0-.06c.1.06.1.06.1.09S257.3,93.06,257.26,93Zm1-1c0-.06,0-.06.14-.06V92C258.27,92,258.22,92,258.22,92Zm2.26-3a.64.64,0,0,0-.28,0c-.13,0-.23.06-.36.06H259l-.6,0c-.05,0-.05.06-.05.09s.05.09.05.06a1.09,1.09,0,0,1,.46-.06h1.61c.14,0,.18,0,.28,0a.4.4,0,0,0,.13-.06c.05,0,.05-.08.14-.08s-.14,0-.27,0S260.53,89.09,260.48,89ZM259,99.24l-.05,0s0,0,.05.09a2.53,2.53,0,0,0,.64.09,1,1,0,0,1,.42.08s0,0,.13,0a3.27,3.27,0,0,1,.56-.08l0-.06s0,0,0,0a.7.7,0,0,1-.37-.06.58.58,0,0,0-.32,0,2.36,2.36,0,0,0-.69-.06Zm5.71-10.33.09,0s0,0,0-.08a1.2,1.2,0,0,1,.56,0s.13,0,.13,0a2.92,2.92,0,0,1,.83,0h.6a2.61,2.61,0,0,0,.83-.09s.09,0,.14,0a.19.19,0,0,1,.14.06,3.3,3.3,0,0,1,1.1-.09h1.11c.18-.17.55-.09.82-.09a12,12,0,0,0,1.34-.05h.23s0-.09.05-.09.09.06.13.06a.25.25,0,0,1,.14,0c.14-.09.23,0,.37,0a1,1,0,0,0,.55,0,1.63,1.63,0,0,1,.69-.09h1.06a3.25,3.25,0,0,0,1.2-.09h.05a.4.4,0,0,0,.41,0c.09,0,.23.06.28.06a1.28,1.28,0,0,0,.32-.09h.27a.71.71,0,0,0,.51,0,8.63,8.63,0,0,1,.88,0H283c.09,0,.09,0,.13,0s0,0-.13,0h-4.06c-.69-.06-1.33,0-2,0a.93.93,0,0,0-.33,0,.2.2,0,0,1-.23,0,.59.59,0,0,0-.55,0,1,1,0,0,1-.32,0h-2.4a.69.69,0,0,0-.27,0s-.09.06-.09.09a.61.61,0,0,1-.14,0s-.14-.06-.19-.06a1.36,1.36,0,0,1-.64.09h-1.43a.53.53,0,0,0-.27.06,2.2,2.2,0,0,1-.74,0c-.64.05-1.24.05-1.84.05a.61.61,0,0,0-.37,0,1.22,1.22,0,0,1-.46.06h-1.52a.5.5,0,0,0-.14,0s0,.06,0,.09A.37.37,0,0,0,264.72,88.91Zm1.42,8.52c.09,0,.14,0,.14,0s0,.06-.14.06v-.09Zm1.52-8.14c.09,0,.09,0,.09,0s-.09-.06-.09-.06h-.18c-.09,0-.09.06-.14.06s.05,0,.14,0Zm-.18-.26h0v0Zm.32,7s-.05.09-.05.09-.09-.06-.13-.09v0h.18Zm.14,0h-.14v-.09C267.89,95.93,267.94,95.93,267.94,96Zm.6-.89c0,.09-.05.11-.19.11s0,.09-.18.12,0-.12.18-.12S268.4,95.13,268.54,95.13ZM268.31,89l-.1,0h.1Zm.18.26c-.09,0-.09-.06-.14-.06s0,.06-.14.06c.1,0,.1,0,.14,0A.31.31,0,0,0,268.49,89.26Zm.14,5.78.05,0c-.05.06-.05.06-.14.06S268.54,95.07,268.63,95Zm.18-5.75s0,0,.09,0c-.09,0-.09-.06-.09-.06s0,.06,0,.06S268.77,89.29,268.81,89.29Zm.14,5.52v0c.09,0,.09,0,.14,0l.09,0a.11.11,0,0,1,.05.11c-.05.06-.05.09-.19.09S269,94.87,269,94.81Zm.83-5.64,0-.06h-.09c0,.06.09.06.09.06Zm.69,0c0-.06-.05-.08-.14-.06s-.14,0,0,.06,0,0,0,0Zm.41,0c0-.06,0-.06-.13-.06s.09.06.09.06Zm0-.26c-.09,0-.09,0,0,0s0,0,0,0Zm.55,0v0s0,0-.09,0a.33.33,0,0,0-.14,0s0,0,.09,0Zm.14.15-.23,0a.73.73,0,0,0,.23.09.5.5,0,0,0,.18,0v-.06Zm.37-.15a.4.4,0,0,0,.37,0l0,0s0,0-.14,0a.74.74,0,0,0-.32,0S271.9,88.94,271.9,88.94Zm.14.17c0,.06,0,.06.09.06S272,89.11,272,89.11Zm2.07-.11H273s0,0,0,.09,0,.08,0,.08a1,1,0,0,1,.37-.08h1.34c.09,0,.23,0,.27-.06h.09L275,89a4,4,0,0,1-.87-.06Zm-1-.17h.09v-.06h-.09Zm1.66,0s0,0,0,0,0-.06-.13-.06a1.52,1.52,0,0,0-.37,0s-.09,0-.09.06h.09a.47.47,0,0,0,.18,0Zm2.07,0h-.42c-.23,0-.41.17-.64.14-.05,0-.05,0-.05,0a1,1,0,0,0,.69,0c.05-.06.19,0,.28,0s.19,0,.19-.09S276.92,88.91,276.87,88.86Zm.74-.18s0,0-.05,0v.09Zm.59.26c.1,0,.1,0,.1,0s-.1,0-.1,0h-.59l-.05,0s0,0,.05,0h.59Zm.23-.2h.14a.19.19,0,0,1,.14-.06.29.29,0,0,1-.14,0h-.5c-.05,0,.09.09,0,.09Zm.6.17v0s0,0,0,0,0,0,0,0Zm.14-.26c-.05,0-.05,0,0,.09l.09-.06S279.26,88.65,279.17,88.65Zm.65.09h0c.09,0,.09-.06.09-.06s0,0-.09,0-.14,0-.14,0Zm1,0c.09,0,.09-.06.09-.06s0,0-.09,0,0,0-.05,0S280.83,88.74,280.83,88.74Zm.46.12a.42.42,0,0,0-.14,0,.31.31,0,0,0,.14,0h.37l.14,0c-.1,0-.14,0-.24,0Zm2.35-.52a.29.29,0,0,0-.14,0,.5.5,0,0,0-.14,0c.09,0,.09,0,.09,0A.27.27,0,0,0,283.64,88.34Zm.36,0v-.08c-.09,0-.09,0-.09,0S283.91,88.39,284,88.39Zm.33-.08c-.1,0-.1,0,0,.08s0,0,0,0S284.33,88.31,284.33,88.31Z"/></svg>