<svg id="Layer_1" data-name="Layer 1" xmlns="http://www.w3.org/2000/svg" xmlns:xlink="http://www.w3.org/1999/xlink" viewBox="0 0 2716 280"><defs><style>.cls-1{fill:none;}.cls-2{fill:#1c95d3;}.cls-3{clip-path:url(#clip-path);}.cls-4{clip-path:url(#clip-path-2);}.cls-14,.cls-5{fill:#fff;}.cls-6{fill:#f26522;}.cls-7{fill:#e51b24;}.cls-8{fill:#f99f1c;}.cls-9{fill:#231f20;}.cls-10{fill:#7773b5;}.cls-11{fill:#e91d25;}.cls-12{fill:#13a0db;}.cls-13,.cls-15{fill:#2e6fb7;}.cls-14,.cls-15{fill-rule:evenodd;}.cls-16{fill:#0058a0;}.cls-17{fill:#faa61a;}</style><clipPath id="clip-path"><rect class="cls-1" x="20" y="21.34" width="562.66" height="237.95"/></clipPath><clipPath id="clip-path-2"><rect class="cls-1" width="2716" height="280"/></clipPath></defs><title>barion-card</title><rect class="cls-1" width="2716" height="280"/><rect class="cls-2" x="20" y="21.34" width="562.66" height="237.96"/><g class="cls-3"><path class="cls-2" d="M89.41,34.75s-45,0-45,45v117.4s0,45,45,45H525.92s45,0,45-45V79.76s0-45-45-45Z"/></g><g class="cls-4"><path class="cls-5" d="M496.74,186.25V132.86q0-5.76-4.18-8.38a19.43,19.43,0,0,0-10.42-2.61,34.45,34.45,0,0,0-5.85.49,26.49,26.49,0,0,0-4.64,1.16v62.73H449.21V114.46A80.59,80.59,0,0,1,464,110.55a107.38,107.38,0,0,1,19-1.58q17.65,0,26.95,5.7t9.3,17.92v53.66Z"/><path class="cls-5" d="M298.1,186.25V109.92a185.89,185.89,0,0,1,22.43,1.32v75Z"/><path class="cls-5" d="M321.73,89.75a8.81,8.81,0,0,1-3.66,7.07,13.56,13.56,0,0,1-8.82,3,13.3,13.3,0,0,1-8.76-3,8.76,8.76,0,0,1,0-14.14,13.3,13.3,0,0,1,8.76-3,13.56,13.56,0,0,1,8.82,3,8.84,8.84,0,0,1,3.66,7.07"/><path class="cls-5" d="M284.18,123.94a34.66,34.66,0,0,0-9.89-1.65,19.71,19.71,0,0,0-8.57,1.37v62.6H243.29v-71.8a67.77,67.77,0,0,1,14.53-4A122.87,122.87,0,0,1,278.2,109c1.77,0,3.63,0,5.58.14a45,45,0,0,1,4.65.41Z"/><path class="cls-5" d="M149.76,145.9q0,19.36-11,30.14T107,186.81a88.81,88.81,0,0,1-18.12-1.58,43.72,43.72,0,0,1-11.75-3.91V77.12H99.45v35a52.8,52.8,0,0,1,6.9-2,44.67,44.67,0,0,1,9.69-.9,34.37,34.37,0,0,1,13.67,2.68,31.13,31.13,0,0,1,10.69,7.48,33.83,33.83,0,0,1,6.9,11.54,43.27,43.27,0,0,1,2.46,15m-22.84,1.24a52.36,52.36,0,0,0-.93-10.23,24.71,24.71,0,0,0-3-8.24,14.49,14.49,0,0,0-13.41-7.34,24.28,24.28,0,0,0-10.08,1.78v49.56a15.34,15.34,0,0,0,3.58,1.1,28.15,28.15,0,0,0,5.18.41q9.42,0,14.07-7.41t4.64-19.63"/><path class="cls-5" d="M231,186.25c0,.05-35.24.54-38.44.54a37.91,37.91,0,0,1-14.13-2.57,32,32,0,0,1-11.11-7.31,33.64,33.64,0,0,1-7.26-11.49,41.76,41.76,0,0,1-2.63-15.23,50.22,50.22,0,0,1,2.7-16.92,34.27,34.27,0,0,1,8.13-13,36.39,36.39,0,0,1,13.6-8.35,56.57,56.57,0,0,1,19-2.92,90.7,90.7,0,0,1,17.64,1.6c5.38,1.07,9.5,1.87,12.46,3.45Zm-22.56-63.2a20.26,20.26,0,0,0-3.63-1.26,21.36,21.36,0,0,0-5.25-.56q-9.56,0-14.27,7.1t-4.71,20.74Q180.59,175,199,175a27.57,27.57,0,0,0,5.25-.49,15.89,15.89,0,0,0,4.17-1.32Z"/><path class="cls-5" d="M386.38,202.2c29.1-.72,52.13-25.7,51.44-55.79a55.61,55.61,0,0,0-8.38-28.21c-10.11-.14-20.29,2.89-24.09,3.94a33.62,33.62,0,0,1-7.58,55.92c-1.23-3-1.7-4.1-2.91-7C383.5,177.93,367,185.6,348,186.44a51.62,51.62,0,0,0,38.35,15.76"/><path class="cls-5" d="M383.85,93.2c-29.11.72-52.13,25.7-51.44,55.8a55.57,55.57,0,0,0,8.37,28.2c10.12.15,20.3-2.89,24.09-3.93a33.63,33.63,0,0,1,7.58-55.93c1.24,3,1.7,4.1,2.92,7,11.35-6.88,27.88-14.55,46.82-15.39A51.67,51.67,0,0,0,383.85,93.2"/><rect class="cls-6" x="1775.21" y="47.42" width="102.54" height="184.26"/><path class="cls-7" d="M1781.72,139.55a117,117,0,0,1,44.76-92.13,117.19,117.19,0,1,0,0,184.26,117,117,0,0,1-44.76-92.13"/><path class="cls-8" d="M2016.08,139.55a117.18,117.18,0,0,1-189.6,92.13,117.2,117.2,0,0,0,0-184.26,117.19,117.19,0,0,1,189.6,92.13"/><path class="cls-5" d="M2004.9,212.17v-3.78h1.52v-.77h-3.88v.77h1.53v3.78Zm7.52,0v-4.55h-1.19l-1.37,3.13-1.36-3.13h-1.19v4.55h.84v-3.44l1.28,3h.87l1.28-3v3.44Z"/><path class="cls-9" d="M2165.94,256.42V240.89c0-5.85-3.72-9.78-9.73-9.84a9.61,9.61,0,0,0-8.7,4.4,9.07,9.07,0,0,0-8.17-4.4,8.19,8.19,0,0,0-7.25,3.68v-3.06h-5.38v24.75h5.43V242.7c0-4.3,2.38-6.57,6.06-6.57s5.38,2.32,5.38,6.52v13.77H2149V242.7c0-4.3,2.49-6.57,6.06-6.57s5.44,2.32,5.44,6.52v13.77Zm30.33-12.37V231.67h-5.38v3a9.39,9.39,0,0,0-7.82-3.63c-6.93,0-12.37,5.44-12.37,13s5.44,13,12.37,13a9.39,9.39,0,0,0,7.82-3.63v3h5.38Zm-20,0c0-4.35,2.85-7.92,7.51-7.92,4.45,0,7.45,3.41,7.45,7.92s-3,7.92-7.45,7.92c-4.66,0-7.51-3.57-7.51-7.92m135.22-13a13.93,13.93,0,0,1,5.3,1,13,13,0,0,1,4.23,2.74,12.41,12.41,0,0,1,2.79,4.12,13.71,13.71,0,0,1,0,10.33,12.56,12.56,0,0,1-2.79,4.13,13,13,0,0,1-4.23,2.73,14.57,14.57,0,0,1-10.61,0,12.49,12.49,0,0,1-7-6.86,13.71,13.71,0,0,1,0-10.33,12.54,12.54,0,0,1,2.78-4.12,12.78,12.78,0,0,1,4.21-2.74,14,14,0,0,1,5.31-1m0,5.1a8,8,0,0,0-3.08.58,7.18,7.18,0,0,0-2.45,1.62,7.56,7.56,0,0,0-1.63,2.51,9.05,9.05,0,0,0,0,6.43,7.56,7.56,0,0,0,1.63,2.51,7.35,7.35,0,0,0,2.45,1.63,8.44,8.44,0,0,0,6.15,0,7.44,7.44,0,0,0,2.47-1.63,7.75,7.75,0,0,0,1.64-2.51,9.05,9.05,0,0,0,0-6.43,7.75,7.75,0,0,0-1.64-2.51,7.26,7.26,0,0,0-2.47-1.62,8,8,0,0,0-3.07-.58m-85.9,7.93c0-7.72-4.81-13-11.75-13-7.24,0-12.31,5.28-12.31,13s5.27,13,12.68,13a15.07,15.07,0,0,0,10.14-3.47l-2.64-4a11.76,11.76,0,0,1-7.19,2.59c-3.47,0-6.63-1.6-7.41-6h18.38c.05-.68.1-1.35.1-2.07m-18.42-2.18c.57-3.57,2.74-6,6.57-6,3.47,0,5.69,2.17,6.26,6Zm41.09-3.88a15.94,15.94,0,0,0-7.71-2.12c-2.95,0-4.71,1.08-4.71,2.9,0,1.65,1.86,2.12,4.2,2.43l2.53.36c5.38.78,8.64,3.05,8.64,7.4,0,4.72-4.14,8.08-11.28,8.08a17.86,17.86,0,0,1-10.71-3.21l2.53-4.19a13.24,13.24,0,0,0,8.23,2.58c3.68,0,5.64-1.08,5.64-3,0-1.4-1.39-2.17-4.34-2.59l-2.54-.36c-5.54-.78-8.54-3.26-8.54-7.3,0-4.91,4-7.92,10.3-7.92a18.57,18.57,0,0,1,10.09,2.59Zm25.87-1.4h-8.8v11.19c0,2.48.88,4.13,3.57,4.13a10,10,0,0,0,4.77-1.39l1.55,4.6a12.66,12.66,0,0,1-6.73,1.92c-6.37,0-8.59-3.42-8.59-9.17V236.59h-5v-4.92h5v-7.5h5.44v7.5h8.8Zm18.63-5.54a11.4,11.4,0,0,1,3.83.68l-1.66,5.07a8.7,8.7,0,0,0-3.36-.62c-3.52,0-5.28,2.27-5.28,6.37v13.87h-5.38V231.67h5.33v3a7.29,7.29,0,0,1,6.52-3.63M2330,252.81a2.45,2.45,0,0,1,1,.2,2.54,2.54,0,0,1,.8.53,2.5,2.5,0,0,1,.53.78,2.38,2.38,0,0,1,0,1.91,2.5,2.5,0,0,1-.53.78,2.72,2.72,0,0,1-.8.53,2.45,2.45,0,0,1-1,.2,2.54,2.54,0,0,1-1-.2,2.6,2.6,0,0,1-.8-.53,2.5,2.5,0,0,1-.53-.78,2.38,2.38,0,0,1,0-1.91,2.5,2.5,0,0,1,.53-.78,2.43,2.43,0,0,1,.8-.53,2.54,2.54,0,0,1,1-.2m0,4.39a1.86,1.86,0,0,0,.75-.15,1.94,1.94,0,0,0,.6-.41,1.92,1.92,0,0,0,.41-.62,1.93,1.93,0,0,0,0-1.49,2,2,0,0,0-.41-.61,1.94,1.94,0,0,0-.6-.41,1.86,1.86,0,0,0-.75-.14,1.89,1.89,0,0,0-.75.14,2,2,0,0,0-.62.41,2,2,0,0,0-.4.61,1.93,1.93,0,0,0,0,1.49,1.89,1.89,0,0,0,.4.62,2,2,0,0,0,.62.41,1.9,1.9,0,0,0,.75.15m.15-3.07a1.06,1.06,0,0,1,.68.19.66.66,0,0,1,.24.54.64.64,0,0,1-.19.46.9.9,0,0,1-.54.23l.74.87h-.58l-.69-.87h-.23v.87h-.48v-2.29Zm-.57.42v.61h.56a.55.55,0,0,0,.31-.07.26.26,0,0,0,.12-.23.25.25,0,0,0-.12-.23.54.54,0,0,0-.31-.08Z"/><rect class="cls-10" x="2184.81" y="42.85" width="81.64" height="146.71"/><path class="cls-11" d="M2190,116.2a93.16,93.16,0,0,1,35.63-73.35,93.3,93.3,0,1,0,0,146.71A93.18,93.18,0,0,1,2190,116.2"/><path class="cls-12" d="M2367.68,174v-3h1.21v-.61h-3.08V171H2367v3Zm6,0V170.4h-1l-1.09,2.48-1.08-2.48h-1V174h.67v-2.74l1,2.36h.69l1-2.36V174Z"/><path class="cls-12" d="M2376.58,116.2a93.31,93.31,0,0,1-151,73.36,93.31,93.31,0,0,0,0-146.71,93.3,93.3,0,0,1,151,73.35"/><rect class="cls-13" x="2458" y="20" width="238.31" height="238.32"/><polygon class="cls-14" points="2544.33 220.61 2544.33 135.21 2696.32 135.35 2696.32 158.94 2678.75 177.71 2696.32 196.66 2696.32 220.75 2668.27 220.75 2653.36 204.3 2638.56 220.81 2544.33 220.61"/><polygon class="cls-15" points="2554.48 211.25 2554.48 144.61 2610.98 144.61 2610.98 159.96 2572.77 159.96 2572.77 170.38 2610.07 170.38 2610.07 185.48 2572.77 185.48 2572.77 195.71 2610.98 195.71 2610.98 211.25 2554.48 211.25"/><polygon class="cls-15" points="2610.7 211.25 2641.96 177.89 2610.7 144.61 2634.9 144.61 2654 165.73 2673.16 144.61 2696.32 144.61 2696.32 145.14 2665.72 177.89 2696.32 210.3 2696.32 211.25 2672.93 211.25 2653.48 189.91 2634.24 211.25 2610.7 211.25"/><polygon class="cls-14" points="2551.42 59.42 2588.05 59.42 2600.92 88.64 2600.92 59.42 2646.15 59.42 2653.95 81.31 2661.78 59.42 2696.32 59.42 2696.32 144.81 2513.79 144.81 2551.42 59.42"/><path class="cls-15" d="M2558.36,68.7l-29.57,66.58h20.28l5.58-13.34h30.22l5.57,13.34h20.79L2581.78,68.7Zm2.54,38.3,8.86-21.19,8.86,21.19Z"/><polygon class="cls-15" points="2610.95 135.26 2610.95 68.69 2639.45 68.79 2654.12 109.72 2668.88 68.69 2696.32 68.69 2696.32 135.26 2678.66 135.42 2678.66 89.69 2662 135.26 2645.89 135.26 2628.88 89.53 2628.88 135.26 2610.95 135.26"/><rect class="cls-5" x="698.41" y="26.29" width="381.84" height="226.52"/><polygon class="cls-16" points="761.65 104.36 783.92 188.39 809.77 188.39 849.99 91.07 823.77 91.07 798.44 157.15 788.02 105.44 761.65 104.36"/><polygon class="cls-16" points="859.79 90.7 844.34 188.39 868.76 188.39 884.56 90.7 859.79 90.7"/><path class="cls-16" d="M956.39,114.05,960,93.59a71.16,71.16,0,0,0-23.7-4.31c-12.94,0-40.95,8.26-40.95,32.31s34.84,25.14,34.84,38.42-31.24,11.86-40.58,3.25l-4,21.18s14,5.39,26.57,5.39S956,187,956,155.72c0-27.31-34.84-21.91-34.84-38.43,0,0,3.58-16.52,35.19-3.24"/><path class="cls-16" d="M954.59,188.39h26.93l4.67-14h33l2.75,13.88h23.34L1023.9,91.79h-21.55s-7.9.9-11.48,10.42c-3.42,9-36.28,86.18-36.28,86.18"/><polygon class="cls-5" points="1015.28 154.28 993.37 154.28 1007.02 118.36 1015.28 154.28"/><path class="cls-16" d="M795.71,143.62,788,105.44S787,91.1,776.77,91.1H735.05v2s41.28,6.84,60.66,50.53"/><rect class="cls-17" x="698.4" y="202.65" width="381.85" height="56.61"/><rect class="cls-16" x="698.41" y="20.36" width="381.84" height="56.61"/><rect class="cls-5" x="1201.25" y="26.33" width="384.28" height="227.96"/><polygon class="cls-5" points="1520.15 155.13 1498.1 155.13 1511.84 118.99 1520.15 155.13"/><rect class="cls-17" x="1201.25" y="220" width="384.28" height="40.79"/><rect class="cls-16" x="1201.25" y="20.36" width="384.28" height="40.13"/><path class="cls-16" d="M1357.34,79.44,1320,168.55h-24.37l-18.38-71.12c-1.12-4.37-2.09-6-5.48-7.82-5.54-3-14.7-5.83-22.74-7.58l.54-2.59h39.23a10.74,10.74,0,0,1,10.63,9.08l9.72,51.57,24-60.65Zm32.94,0-19.06,89.11h-23l19.06-89.11Zm62.54,60c.1-23.52-32.51-24.82-32.3-35.33.08-3.19,3.12-6.59,9.78-7.46a43.48,43.48,0,0,1,22.74,4l4-18.91a62.1,62.1,0,0,0-21.57-3.94c-22.79,0-38.82,12.11-39,29.46-.15,12.83,11.45,20,20.18,24.25,9,4.37,12,7.17,12,11.07-.07,6-7.18,8.63-13.8,8.73-11.59.18-18.31-3.14-23.67-5.64l-4.18,19.54c5.39,2.47,15.33,4.62,25.62,4.73,24.23,0,40.08-12,40.15-30.49M1513,168.55h21.32L1515.7,79.44H1496a10.48,10.48,0,0,0-9.82,6.53l-34.59,82.58h24.21l4.8-13.31h29.58ZM1487.27,137l12.14-33.47,7,33.47Zm-67.48,56.1h-9.37v8.71h10.48v2.63h-13.64V180.23h13.1v2.62h-9.94v7.64h9.37Zm6-14.14h3.16v25.47h-3.16Zm11.12,17.37c.07,4.27,2.76,6,6,6a11.38,11.38,0,0,0,4.82-.89l.57,2.26a14.2,14.2,0,0,1-5.82,1.11c-5.34,0-8.53-3.55-8.53-8.79s3.08-9.33,8.14-9.33c5.7,0,7.18,4.95,7.18,8.15a7.85,7.85,0,0,1-.11,1.47Zm9.26-2.27c0-2-.83-5.09-4.38-5.09-3.23,0-4.59,2.91-4.85,5.09Zm20.23,9.76a12.14,12.14,0,0,1-5,1c-5.24,0-8.65-3.55-8.65-8.86s3.66-9.26,9.33-9.26a9.89,9.89,0,0,1,4.38.93l-.72,2.41a7.66,7.66,0,0,0-3.66-.83c-4,0-6.13,3-6.13,6.57,0,4,2.58,6.49,6,6.49a9,9,0,0,0,3.87-.82Zm8.86-20.91v4.16h4.52v2.4h-4.52v9.37c0,2.15.61,3.37,2.36,3.37a6,6,0,0,0,1.83-.21l.15,2.4a8.49,8.49,0,0,1-2.8.43,4.49,4.49,0,0,1-3.41-1.33c-.86-1-1.22-2.51-1.22-4.55v-9.48h-2.69v-2.4h2.69v-3.23Zm8.93,9.58c0-2.05,0-3.81-.15-5.42h2.77l.14,3.44h.11a5.24,5.24,0,0,1,4.84-3.8,7.49,7.49,0,0,1,.86.07v3a5,5,0,0,0-1.08-.07c-2.22,0-3.8,1.65-4.23,4a9.56,9.56,0,0,0-.11,1.47v9.26h-3.15Zm28,3.12c0,6.42-4.49,9.22-8.65,9.22-4.66,0-8.32-3.45-8.32-8.93,0-5.78,3.84-9.19,8.61-9.19,5,0,8.36,3.62,8.36,8.9m-13.74.18c0,3.8,2.15,6.67,5.24,6.67s5.27-2.83,5.27-6.74c0-2.95-1.47-6.64-5.2-6.64s-5.31,3.44-5.31,6.71m18.58-4c0-1.83,0-3.26-.15-4.7h2.8l.19,2.87h.06a6.45,6.45,0,0,1,5.75-3.23c2.4,0,6.13,1.44,6.13,7.39v10.33h-3.15v-10c0-2.79-1-5.13-4-5.13a4.54,4.54,0,0,0-4.23,3.23,4.37,4.37,0,0,0-.22,1.47v10.44H1517Z"/></g></svg>